<?xml version="1.0" standalone="no"?>
<!DOCTYPE svg PUBLIC "-//W3C//DTD SVG 20010904//EN"
 "http://www.w3.org/TR/2001/REC-SVG-20010904/DTD/svg10.dtd">
<svg version="1.0" xmlns="http://www.w3.org/2000/svg"
 width="700.000000pt" height="700.000000pt" viewBox="0 0 700.000000 700.000000"
 preserveAspectRatio="xMidYMid meet">
<metadata>
Created by potrace 1.11, written by Peter Selinger 2001-2013
</metadata>
<g transform="translate(0.000000,700.000000) scale(0.100000,-0.100000)"
fill="#000000" stroke="none">
<path d="M1302 6918 c-6 -18 -35 -130 -66 -248 -30 -118 -71 -276 -90 -350
-19 -74 -55 -216 -81 -315 -25 -99 -58 -216 -72 -260 -14 -44 -33 -107 -43
-140 -10 -33 -30 -96 -43 -140 -89 -287 -208 -671 -226 -730 -26 -88 -91 -359
-97 -405 -2 -19 -9 -50 -14 -70 -5 -19 -11 -51 -14 -70 -3 -19 -7 -44 -10 -55
-2 -11 -9 -56 -16 -100 -7 -44 -13 -87 -15 -95 -1 -8 -5 -40 -9 -70 -4 -30 -8
-68 -10 -85 -28 -224 -40 -430 -39 -675 0 -174 9 -394 18 -450 2 -14 7 -45 10
-70 5 -44 12 -97 21 -155 27 -183 98 -444 169 -620 141 -351 325 -604 640
-884 507 -450 967 -703 1501 -826 121 -28 342 -62 455 -70 87 -6 411 -6 454 0
17 2 62 7 100 10 39 3 95 10 125 15 30 5 71 12 90 15 34 6 206 43 224 48 5 2
-49 50 -120 107 -71 57 -131 106 -134 109 -3 4 -36 32 -75 63 -38 31 -79 65
-90 75 -11 10 -69 61 -130 112 -345 294 -762 705 -1002 988 -296 349 -490 648
-609 933 -14 36 -30 76 -34 90 -32 101 -38 122 -36 118 25 -28 160 -184 187
-213 20 -22 62 -69 94 -105 32 -36 61 -67 64 -70 3 -3 62 -66 131 -140 219
-236 536 -549 740 -729 52 -47 97 -87 100 -91 14 -16 238 -195 324 -259 114
-84 261 -181 356 -233 66 -37 223 -105 257 -111 10 -2 29 -7 43 -11 40 -10
150 -14 144 -5 -3 5 -29 20 -57 34 -29 14 -79 45 -112 70 -217 163 -369 397
-440 679 -42 165 -50 242 -50 466 1 226 12 357 55 604 11 61 21 127 24 146 8
60 39 250 51 309 2 13 7 49 11 80 3 31 9 83 14 116 15 115 5 410 -18 521 -60
282 -187 531 -410 803 -80 98 -285 310 -393 406 -67 60 -275 224 -349 275 -36
24 -85 58 -110 75 -53 36 -177 112 -240 147 -25 14 -76 43 -115 65 -38 22
-115 64 -170 93 -440 231 -619 380 -731 610 -36 74 -78 201 -89 270 -4 25 -9
53 -11 64 -9 51 -18 172 -18 263 -1 57 -2 103 -3 103 -1 0 -6 -15 -11 -32z"/>
<path d="M6445 3435 c-27 -7 -63 -15 -80 -18 -16 -3 -79 -17 -140 -31 -414
-97 -853 -246 -1138 -387 -223 -109 -435 -354 -537 -621 -24 -61 -59 -195 -66
-247 -2 -20 -7 -47 -10 -61 -7 -33 -6 -246 1 -318 12 -122 52 -292 101 -434
51 -147 151 -348 172 -348 9 1 43 13 74 28 189 90 421 421 643 917 94 208 97
217 124 285 12 30 26 64 32 75 5 11 29 76 54 144 25 68 50 131 56 140 7 11 8
-35 4 -148 -3 -90 -7 -166 -9 -170 -2 -3 -7 -42 -10 -85 -4 -44 -8 -82 -10
-85 -2 -3 -7 -28 -10 -56 -15 -113 -23 -158 -42 -245 -3 -14 -7 -36 -10 -50
-17 -97 -86 -372 -140 -562 -5 -15 0 -15 53 3 358 123 623 368 794 735 75 162
154 437 174 609 3 28 8 59 10 70 5 24 14 115 20 205 6 79 6 354 0 430 -9 126
-16 206 -21 223 -6 20 -21 20 -89 2z"/>
</g>
</svg>
