
<svg width="82px" height="37px" viewBox="0 0 82 37" version="1.1" xmlns="http://www.w3.org/2000/svg" xmlns:xlink="http://www.w3.org/1999/xlink">
    <!-- Generator: Sketch 46.2 (44496) - http://www.bohemiancoding.com/sketch -->
    <desc>Created with Sketch.</desc>
    <defs>
        <polygon id="path-1" points="27.8768215 0.115766871 0.147760728 0.115766871 0.147760728 36.7728926 27.8768215 36.7728926 27.8768215 0.115766871"></polygon>
    </defs>
    <g id="Page-1" stroke="none" stroke-width="1" fill="none" fill-rule="evenodd">
        <g>
            <path d="M0,33.9139957 L1.92672393,33.9139957 L3.24328834,30.9966706 L8.23329448,31.018689 L9.44362577,33.9139957 L11.3544601,33.9139957 L5.79106748,21.1546706 L0,33.9139957 Z M5.76973006,25.2101429 L7.48966258,29.2651613 L3.96512883,29.2651613 L5.76973006,25.2101429 Z" id="Fill-1" fill="#221E1F"></path>
            <polygon id="Fill-2" fill="#221E1F" points="48.3205472 21.3922423 50.1828049 21.3922423 50.1828049 26.4501196 54.8609215 21.3922423 57.2999706 21.3922423 51.8235166 27.0913773 57.2999706 33.9139049 54.9276577 33.9139049 50.5153509 28.3502853 50.1387681 28.7393528 50.1387681 33.9139049 48.3205472 33.9139049"></polygon>
            <polygon id="Fill-3" fill="#221E1F" points="71.3349331 33.8886632 73.1590558 33.8886632 73.1808472 25.2213564 81.9266939 34.635246 81.9266939 21.5007 80.1245896 21.5007 80.1245896 30.1437184 71.3349331 20.6158779"></polygon>
            <g id="Group-19" transform="translate(19.521472, 0.111227)">
                <g id="Group-6">
                    <mask id="mask-2" fill="white">
                        <use xlink:href="#path-1"></use>
                    </mask>
                    <g id="Clip-5"></g>
                    <path d="M1.91825706,3.70715031 L0.917895092,6.92342638 C0.917895092,6.92342638 -1.21266933,13.7010092 1.61363129,17.7181196 C4.4399319,21.735684 15.833662,25.8199847 16.4635699,28.4240583 L16.4635699,33.6776043 L18.2683982,33.6776043 L18.2817908,28.3795675 C23.0055331,29.6355245 27.8768215,36.7728926 27.8768215,36.7728926 C26.9204963,31.6105982 16.4635699,24.698408 16.4635699,24.698408 C16.4635699,24.698408 6.35326319,18.2347577 5.09231227,13.4315675 C5.09231227,13.4315675 10.5567356,19.925181 12.8178215,19.6260031 C12.8178215,19.6260031 10.5567356,18.8478681 10.6725025,15.4963037 C10.7884963,12.1449663 12.5274963,10.1701196 9.04926933,6.75840184 C5.57058834,3.34759202 2.72998712,4.42467791 2.84575399,0.115653374 L1.91825706,3.70715031 Z" id="Fill-4" fill="#82BC00" mask="url(#mask-2)"></path>
                </g>
            </g>
            <path d="M46.4644638,33.337681 C46.4644638,33.337681 43.0354945,28.1787914 35.984838,23.7771534 L35.984838,20.6571227 L44.6812,30.0837239 L44.6812,21.532638 L46.4644638,21.532638 L46.4644638,33.337681 Z" id="Fill-7" fill="#221E1F"></path>
            <path d="M26.4727055,22.6602074 C26.4727055,22.6602074 28.2446196,23.7343423 28.3499448,23.8900601 L28.3499448,26.0215325 L32.6008589,26.0215325 L33.1826442,26.4889129 L33.1663006,27.7723362 L28.304092,27.7723362 L28.3499448,32.1142748 L33.301816,32.1142748 L33.301816,33.9138822 L26.4727055,33.9138822 L26.4727055,22.6602074 Z" id="Fill-9" fill="#221E1F"></path>
            <polygon id="Fill-11" fill="#221E1F" points="23.2269656 21.4597276 24.2740883 21.4597276 24.8817509 21.8837521 20.0224933 33.7798196 17.1980086 25.5730834 14.1272356 33.7798196 9.34106994 21.4597276 11.189708 21.4597276 14.1272356 29.2206479 17.1673644 20.9081325 20.1457509 29.2206479"></polygon>
            <path d="M33.8828748,12.8260613 C33.8828748,12.8260613 35.5816969,11.8617914 38.7242,11.247773 C38.7242,11.247773 39.6787092,17.2633374 35.4854515,18.4959141 C35.4854515,18.4959141 36.317838,15.836 36.2329423,13.9660245 C36.2329423,13.9660245 34.5634025,18.8761288 33.0908933,19.0366135 C33.0908933,19.0366135 30.7405988,15.281227 33.8828748,12.8260613 Z" id="Fill-13" fill="#648B1A"></path>
            <path d="M63.190416,23.1805908 C60.7944957,23.1805908 58.8525632,25.1851736 58.8525632,27.6584988 C58.8525632,30.1315969 60.7944957,32.1364067 63.190416,32.1364067 C65.5858822,32.1364067 67.5273607,30.1315969 67.5273607,27.6584988 C67.5273607,25.1851736 65.5858822,23.1805908 63.190416,23.1805908 M69.2146061,27.6584988 C69.2146061,31.0935969 66.517692,33.8776767 63.190416,33.8776767 C59.8629129,33.8776767 57.1650908,31.0935969 57.1650908,27.6584988 C57.1650908,24.2231736 59.8629129,21.4388669 63.190416,21.4388669 C66.517692,21.4388669 69.2146061,24.2231736 69.2146061,27.6584988" id="Fill-15" fill="#221E1F"></path>
            <polygon id="Fill-17" fill="#221E1F" points="33.3019294 21.4401153 33.3019294 22.3471828 32.1837577 21.4401153"></polygon>
        </g>
    </g>
</svg>