<?xml version="1.0" encoding="utf-8"?>
<!-- Generator: Adobe Illustrator 19.0.0, SVG Export Plug-In . SVG Version: 6.00 Build 0)  -->
<svg version="1.1" id="Layer_1" xmlns="http://www.w3.org/2000/svg" xmlns:xlink="http://www.w3.org/1999/xlink" x="0px" y="0px"
	 viewBox="0 0 1854.6 1472.5" width="1854" height="1472.5" style="enable-background:new 0 0 1854.6 1472.5;" xml:space="preserve">
<style type="text/css">
	.st0{fill:none;}
	.st1{fill:#43693D;}
	.st2{fill:#68943F;}
	.st3{clip-path:url(#XMLID_4_);}
	.st4{fill:#5D843E;}
	.st5{fill:#648E3D;}
	.st6{fill:#729543;}
	.st7{fill:#5F883D;}
	.st8{fill:none;stroke:#39563D;stroke-width:2;stroke-linecap:round;stroke-miterlimit:10;}
	.st9{fill:none;stroke:#648D3D;stroke-width:2;stroke-miterlimit:10;}
	.st10{fill:#FFFFFF;stroke:#231F20;stroke-miterlimit:10;}
	.st11{opacity:0.1;fill:url(#XMLID_5_);}
</style>
<pattern  width="8" height="8" patternUnits="userSpaceOnUse" id="New_Pattern_3" viewBox="0 -8 8 8" style="overflow:visible;">
	<g id="XMLID_1_">
		<polygon id="XMLID_1082_" class="st0" points="0,-8 8,-8 8,0 0,0 		"/>
		<g id="XMLID_1079_">
			<path id="XMLID_2607_" class="st1" d="M1-1c0-0.5-0.4-1-1-1v2C0.5,0,1-0.4,1-1z"/>
			<path id="XMLID_2606_" class="st1" d="M5-2C4.4-2,4-1.5,4-1s0.4,1,1,1h3v-2H5z"/>
		</g>
		<g id="XMLID_1075_">
			<path id="XMLID_2605_" class="st1" d="M4-4H1C0.4-4,0-3.5,0-3s0.4,1,1,1h3c0.5,0,1-0.4,1-1S4.5-4,4-4z"/>
			<path id="XMLID_2604_" class="st1" d="M1-5c0-0.5-0.4-1-1-1v2C0.5-4,1-4.4,1-5z"/>
			<path id="XMLID_2600_" class="st1" d="M5-6C4.4-6,4-5.5,4-5s0.4,1,1,1h3v-2H5z"/>
		</g>
		<g id="XMLID_1073_">
			<path id="XMLID_2599_" class="st1" d="M4-8H1C0.4-8,0-7.5,0-7s0.4,1,1,1h3c0.5,0,1-0.4,1-1S4.5-8,4-8z"/>
		</g>
	</g>
</pattern>
<g id="XMLID_2_">
	<rect id="XMLID_95_" x="0" y="0" class="st2" width="1854.6" height="1472.5"/>
	<g id="XMLID_243_">
		<defs>
			<rect id="XMLID_242_" x="0" y="0" width="1854.6" height="1472.5"/>
		</defs>
		<clipPath id="XMLID_4_">
			<use xlink:href="#XMLID_242_"  style="overflow:visible;"/>
		</clipPath>
		<g id="XMLID_241_" class="st3">
			<polygon id="XMLID_1000_" class="st2" points="-51,1163.3 -64.2,1164.8 -74.6,1200.8 -46.6,1216.1 			"/>
			<path id="XMLID_999_" class="st2" d="M-110.7,1168.5c0,0-20.8,3.5-24.7,4c-3.9,0.6-5.1,1.2-8.2,5.8s-12,17.9-14.9,21.8
				c-2.9,3.9-1.2,6.7,1.1,12c2.3,5.3,6.7,15.4,6.7,15.4l103.6-4.5l-6.2-18.9c0,0-3.5-2.8-8.6-7.1c-2.8-2.4-4.5-5-1.8-10.8
				s11.3-24,11.3-24h-19l-13.8,2l-9.6-4.5L-110.7,1168.5z"/>
			<path id="XMLID_998_" class="st2" d="M-56.4,1038.7l-10.2,0.4l-20,8l-16.5,16.5l-9.4,24.1v5.3l1.8,1.8v82
				c10.1,0,9.8-14.1,17.2-14.1c3.9,0,8.2,1.6,8.2,1.6l-1.8-68.6l1.3-2.2v-6.7l4.5-12l9.4-7.1l16.5-3.6L-56.4,1038.7z"/>
			<path id="XMLID_997_" class="st2" d="M-55,1077c-20,0-18.3,19.6-18.3,19.6s0.4,66.4,0.4,69.5s-10.2,3.3-10.2,0
				s-0.9-72.2-0.9-72.2s2.2-29.8,28.5-29.8S-35,1077-55,1077z"/>
			<path id="XMLID_996_" class="st2" d="M-71.5,1165c0-5.8,0-56.8,0-71.1s16-15.1,16-15.1s4,80.4,2.7,85.1S-71.5,1170.8-71.5,1165z"
				/>
			<polygon id="XMLID_995_" class="st4" points="916.9,945.4 764.2,969 788,1178.7 975.7,1185.8 			"/>
			<rect id="XMLID_994_" x="973.3" y="944.7" class="st2" width="43.4" height="203.1"/>
			<polygon id="XMLID_993_" class="st5" points="1005.7,964.5 1005.7,1168.8 1097.3,1130.8 1094.3,979.3 			"/>
			<polygon id="XMLID_992_" class="st5" points="938.8,945.4 916.9,945.4 924.6,1170.1 985.2,1134.2 981.6,939.9 			"/>
			<polyline id="XMLID_991_" class="st4" points="787.4,888 787.4,902.8 1671.2,1156.3 1664.7,1134.5 787.4,868.4 787.4,888 			"/>
			<polygon id="XMLID_990_" class="st5" points="775.5,884.4 1668.4,1146.9 1715.8,1123.8 787.4,850.8 			"/>
			<polygon id="XMLID_989_" class="st4" points="954.9,948.2 987.8,1147.8 990.1,1125.3 959.8,948.2 			"/>
			<polygon id="XMLID_988_" class="st6" points="947.5,948.8 930.8,1156.3 924.1,1155.5 941.1,947.7 947.5,944.7 			"/>
			<polygon id="XMLID_987_" class="st2" points="787.6,851 783.9,849.9 778.6,885.5 782.2,886.6 			"/>
			<polygon id="XMLID_986_" class="st2" points="821.6,860.9 817.9,859.9 812.5,895.5 816.2,896.5 			"/>
			<polygon id="XMLID_985_" class="st2" points="787.6,851 816.4,895.1 816.2,896.5 812.5,895.5 783.7,851.3 783.9,849.9 			"/>
			<polygon id="XMLID_984_" class="st2" points="855.5,870.9 851.9,869.8 846.5,905.4 850.2,906.5 			"/>
			<polygon id="XMLID_983_" class="st2" points="821.6,860.9 850.4,905.1 850.2,906.5 846.5,905.4 817.7,861.3 817.9,859.9 			"/>
			<polygon id="XMLID_982_" class="st2" points="889.5,880.9 885.8,879.8 880.5,915.4 884.2,916.5 			"/>
			<polygon id="XMLID_981_" class="st2" points="855.5,870.9 884.4,915.1 884.2,916.5 880.5,915.4 851.7,871.3 851.9,869.8 			"/>
			<polygon id="XMLID_980_" class="st2" points="923.5,890.9 919.8,889.8 914.5,925.4 918.1,926.5 			"/>
			<polygon id="XMLID_979_" class="st2" points="889.5,880.9 918.3,925.1 918.1,926.5 914.5,925.4 885.6,881.3 885.8,879.8 			"/>
			<polygon id="XMLID_978_" class="st2" points="957.5,900.9 953.8,899.8 948.4,935.4 952.1,936.5 			"/>
			<polygon id="XMLID_977_" class="st2" points="923.5,890.9 952.3,935.1 952.1,936.5 948.4,935.4 919.6,891.3 919.8,889.8 			"/>
			<polygon id="XMLID_976_" class="st2" points="991.4,910.9 987.8,909.8 982.4,945.4 986.1,946.5 			"/>
			<polygon id="XMLID_975_" class="st2" points="957.5,900.9 986.3,945 986.1,946.5 982.4,945.4 953.6,901.2 953.8,899.8 			"/>
			<polygon id="XMLID_974_" class="st2" points="1025.4,920.9 1021.7,919.8 1016.4,955.4 1020.1,956.5 			"/>
			<polygon id="XMLID_973_" class="st2" points="991.4,910.9 1020.3,955 1020.1,956.5 1016.4,955.4 987.6,911.2 987.8,909.8 			"/>
			<polygon id="XMLID_972_" class="st2" points="1059.4,930.8 1055.7,929.8 1050.4,965.4 1054,966.4 			"/>
			<polygon id="XMLID_971_" class="st2" points="1025.4,920.9 1054.2,965 1054,966.4 1050.4,965.4 1021.5,921.2 1021.7,919.8 			"/>
			<polygon id="XMLID_970_" class="st2" points="1093.3,940.8 1089.7,939.8 1084.3,975.4 1088,976.4 			"/>
			<polygon id="XMLID_969_" class="st2" points="1059.4,930.8 1088.2,975 1088,976.4 1084.3,975.4 1055.5,931.2 1055.7,929.8 			"/>
			<polygon id="XMLID_968_" class="st2" points="1127.3,950.8 1123.7,949.7 1118.3,985.3 1122,986.4 			"/>
			<polygon id="XMLID_967_" class="st2" points="1093.3,940.8 1122.2,985 1122,986.4 1118.3,985.3 1089.5,941.2 1089.7,939.8 			"/>
			<polygon id="XMLID_966_" class="st2" points="1161.3,960.8 1157.6,959.7 1152.3,995.3 1155.9,996.4 			"/>
			<polygon id="XMLID_965_" class="st2" points="1127.3,950.8 1156.2,995 1155.9,996.4 1152.3,995.3 1123.5,951.2 1123.7,949.7
				"/>
			<polygon id="XMLID_964_" class="st2" points="1195.3,970.8 1191.6,969.7 1186.3,1005.3 1189.9,1006.4 			"/>
			<polygon id="XMLID_963_" class="st2" points="1161.3,960.8 1190.1,1005 1189.9,1006.4 1186.3,1005.3 1157.4,961.2 1157.6,959.7
							"/>
			<polygon id="XMLID_962_" class="st2" points="1229.2,980.8 1225.6,979.7 1220.2,1015.3 1223.9,1016.4 			"/>
			<polygon id="XMLID_961_" class="st2" points="1195.3,970.8 1224.1,1015 1223.9,1016.4 1220.2,1015.3 1191.4,971.1 1191.6,969.7
							"/>
			<polygon id="XMLID_960_" class="st2" points="1263.2,990.8 1259.6,989.7 1254.2,1025.3 1257.9,1026.4 			"/>
			<polygon id="XMLID_959_" class="st2" points="1229.2,980.8 1258.1,1024.9 1257.9,1026.4 1254.2,1025.3 1225.4,981.1
				1225.6,979.7 			"/>
			<polygon id="XMLID_958_" class="st2" points="1297.2,1000.8 1293.5,999.7 1288.2,1035.3 1291.8,1036.4 			"/>
			<polygon id="XMLID_957_" class="st2" points="1263.2,990.8 1292.1,1034.9 1291.8,1036.4 1288.2,1035.3 1259.4,991.1
				1259.6,989.7 			"/>
			<polygon id="XMLID_956_" class="st2" points="1331.2,1010.7 1327.5,1009.7 1322.2,1045.3 1325.8,1046.3 			"/>
			<polygon id="XMLID_955_" class="st2" points="1297.2,1000.8 1326,1044.9 1325.8,1046.3 1322.2,1045.3 1293.3,1001.1
				1293.5,999.7 			"/>
			<polygon id="XMLID_954_" class="st2" points="1365.1,1020.7 1361.5,1019.7 1356.1,1055.3 1359.8,1056.3 			"/>
			<polygon id="XMLID_953_" class="st2" points="1331.2,1010.7 1360,1054.9 1359.8,1056.3 1356.1,1055.3 1327.3,1011.1
				1327.5,1009.7 			"/>
			<polygon id="XMLID_952_" class="st2" points="1399.1,1030.7 1395.5,1029.6 1390.1,1065.2 1393.8,1066.3 			"/>
			<polygon id="XMLID_951_" class="st2" points="1365.1,1020.7 1394,1064.9 1393.8,1066.3 1390.1,1065.2 1361.3,1021.1
				1361.5,1019.7 			"/>
			<polygon id="XMLID_950_" class="st2" points="1433.1,1040.7 1429.4,1039.6 1424.1,1075.2 1427.7,1076.3 			"/>
			<polygon id="XMLID_949_" class="st2" points="1399.1,1030.7 1428,1074.9 1427.7,1076.3 1424.1,1075.2 1395.2,1031.1
				1395.5,1029.6 			"/>
			<polygon id="XMLID_948_" class="st2" points="1467.1,1050.7 1463.4,1049.6 1458.1,1085.2 1461.7,1086.3 			"/>
			<polygon id="XMLID_947_" class="st2" points="1433.1,1040.7 1461.9,1084.9 1461.7,1086.3 1458.1,1085.2 1429.2,1041.1
				1429.4,1039.6 			"/>
			<polygon id="XMLID_946_" class="st2" points="1501,1060.7 1497.4,1059.6 1492,1095.2 1495.7,1096.3 			"/>
			<polygon id="XMLID_945_" class="st2" points="1467.1,1050.7 1495.9,1094.8 1495.7,1096.3 1492,1095.2 1463.2,1051 1463.4,1049.6
							"/>
			<polygon id="XMLID_944_" class="st2" points="1535,1070.7 1531.4,1069.6 1526,1105.2 1529.7,1106.3 			"/>
			<polygon id="XMLID_943_" class="st2" points="1501,1060.7 1529.9,1104.8 1529.7,1106.3 1526,1105.2 1497.2,1061 1497.4,1059.6
							"/>
			<polygon id="XMLID_942_" class="st2" points="1569,1080.6 1565.3,1079.6 1560,1115.2 1563.6,1116.2 			"/>
			<polygon id="XMLID_941_" class="st2" points="1535,1070.7 1563.9,1114.8 1563.6,1116.2 1560,1115.2 1531.1,1071 1531.4,1069.6
							"/>
			<polygon id="XMLID_940_" class="st2" points="1603,1090.6 1599.3,1089.6 1594,1125.2 1597.6,1126.2 			"/>
			<polygon id="XMLID_939_" class="st2" points="1569,1080.6 1597.8,1124.8 1597.6,1126.2 1594,1125.2 1565.1,1081 1565.3,1079.6
							"/>
			<polygon id="XMLID_938_" class="st2" points="1636.9,1100.6 1633.3,1099.5 1627.9,1135.1 1631.6,1136.2 			"/>
			<polygon id="XMLID_937_" class="st2" points="1603,1090.6 1631.8,1134.8 1631.6,1136.2 1627.9,1135.1 1599.1,1091 1599.3,1089.6
							"/>
			<polygon id="XMLID_936_" class="st2" points="1670.9,1110.6 1667.3,1109.5 1661.9,1145.1 1665.6,1146.2 			"/>
			<polygon id="XMLID_935_" class="st2" points="1636.9,1100.6 1665.8,1144.8 1665.6,1146.2 1661.9,1145.1 1633.1,1101
				1633.3,1099.5 			"/>
			<polygon id="XMLID_933_" class="st2" points="773.8,846.6 1680.8,1113.2 1684,1117.4 772.9,849.6 			"/>
			<polygon id="XMLID_932_" class="st2" points="773.8,880.8 1680.8,1147.5 1684,1151.7 772.9,883.9 			"/>
			<polygon id="XMLID_931_" class="st5" points="2008,1107.4 1924.9,1095 1702.1,1095 1758.5,1392.6 2008,1381 			"/>
			<polygon id="XMLID_930_" class="st2" points="1758.5,1107.4 1702.1,1095 1657.6,1115.8 1657.6,1330.8 1758.5,1383.6 			"/>
			<polygon id="XMLID_929_" class="st6" points="1755.6,1106.8 2008,1107.4 1924.9,1095 1702.1,1095 			"/>
			<path id="XMLID_928_" class="st5" d="M768.1,212.5l-16.9,0.2c0,0-1-77.7-1.1-81.5c-0.1-3.8,16.9-3.4,16.9-0.2
				C767.1,134.2,768.1,212.5,768.1,212.5z"/>
			<path id="XMLID_927_" class="st4" d="M753.9,155.9c-4.1,0.1-0.9-10.7-6.3-10.6c-4.2,0.1-1.5,10.7-6.8,10.8
				c-2.7,0-3.1-16.6-0.2-16.6s10.7-0.1,13-0.2C756,139.3,756.5,155.9,753.9,155.9z"/>
			<path id="XMLID_926_" class="st5" d="M746.2,213.2l-24.9,0.3c0,0-1-75.1-1.1-80.8c-0.1-5.6,24.9-5.1,24.9-0.3
				C745.2,137.2,746.2,213.2,746.2,213.2z"/>
			<path id="XMLID_925_" class="st7" d="M796.8,1010.1l-73.1,1c0,0-10.6-801.8-10.7-810.7c-0.1-10.7,72.9-13.4,73.1-1
				C786.2,208.3,796.8,1010.1,796.8,1010.1z"/>
			<polygon id="XMLID_924_" class="st4" points="-354.7,1154.1 -366.3,1156.9 -397.5,1165.8 -397.6,1151.8 -381.7,1151.8 			"/>
			<polygon id="XMLID_923_" class="st4" points="-384,1157 -398.5,1156.6 -398.6,1229.4 -376.7,1227 			"/>
			<polygon id="XMLID_922_" class="st5" points="-384,1157 -366.3,1156.9 -366.3,1225.3 -384.9,1226.4 			"/>
			<polygon id="XMLID_921_" class="st5" points="-384.2,1150 -410.4,1149.2 -407,1152.5 -384.3,1153.4 			"/>
			<polygon id="XMLID_920_" class="st5" points="-384.2,1150 -354.8,1151.1 -354.7,1154.1 -384.3,1153.4 			"/>
			<path id="XMLID_919_" class="st5" d="M-612.4,1157.6c0-32.1,217.8-35.2,217.8,0C-394.5,1178.1-612.4,1174.7-612.4,1157.6z"/>
			<line id="XMLID_918_" class="st8" x1="-357.3" y1="1151" x2="-357.3" y2="1127.9"/>
			<line id="XMLID_917_" class="st8" x1="-364.7" y1="1150.7" x2="-364.7" y2="1127.9"/>
			<line id="XMLID_916_" class="st8" x1="-384.6" y1="1150" x2="-384.6" y2="1127"/>
			<line id="XMLID_915_" class="st8" x1="-393.3" y1="1149.7" x2="-393.3" y2="1127.3"/>
			<line id="XMLID_914_" class="st8" x1="-397.6" y1="1149.6" x2="-397.6" y2="1134.5"/>
			<path id="XMLID_913_" class="st8" d="M-405.3,1145.5c7.7-12.3,11.9-15.4,11.9-18.2c0-4.4-58.9-13.3-58.9-13.3l-0.4,20.3"/>
			<line id="XMLID_912_" class="st8" x1="-428.4" y1="1138.5" x2="-428.4" y2="1117.9"/>
			<line id="XMLID_911_" class="st8" x1="-412" y1="1142.7" x2="-412" y2="1121.1"/>
			<polyline id="XMLID_910_" class="st8" points="-355.5,1127.9 -384.6,1127 -391.4,1140.3 			"/>
			<polyline id="XMLID_909_" class="st8" points="-355.5,1127.9 -356.3,1137.2 -384.2,1140.6 			"/>
			<line id="XMLID_908_" class="st8" x1="-485.4" y1="1150.6" x2="-485.4" y2="1128.2"/>
			<line id="XMLID_907_" class="st8" x1="-505.3" y1="1150.6" x2="-505.3" y2="1128.3"/>
			<line id="XMLID_906_" class="st8" x1="-526.2" y1="1151.4" x2="-526.2" y2="1129.1"/>
			<line id="XMLID_905_" class="st8" x1="-546.9" y1="1152.1" x2="-546.9" y2="1129.7"/>
			<line id="XMLID_904_" class="st8" x1="-565.3" y1="1152.8" x2="-565.3" y2="1130.5"/>
			<line id="XMLID_903_" class="st8" x1="-583.7" y1="1154.8" x2="-583.7" y2="1132.4"/>
			<line id="XMLID_902_" class="st8" x1="-600.9" y1="1156.7" x2="-600.9" y2="1134.3"/>
			<line id="XMLID_901_" class="st8" x1="-611.3" y1="1158.6" x2="-611.3" y2="1136.2"/>
			<path id="XMLID_900_" class="st2" d="M-612.4,1157.6c0-7.6,217.8-11.1,217.8,0c0,11.1,0,87.8,0,87.8h-217.8
				C-612.4,1245.4-612.4,1165.2-612.4,1157.6z"/>
			<polygon id="XMLID_899_" class="st5" points="524.1,746.7 523.2,726.7 365.5,718.8 365.5,741 			"/>
			<path id="XMLID_898_" class="st5" d="M534.4,732.3c-1.5,0-1.7-5.8,0-5.8s10.8,0,13.3,0s0,3.7,0,5.8
				C547.7,732.3,535.9,732.3,534.4,732.3z"/>
			<path id="XMLID_897_" class="st2" d="M543.4,750.7h-5.8c0,0,0-18.2,0-19.2c0-0.9,5.8-0.8,5.8,0
				C543.4,732.3,543.4,750.7,543.4,750.7z"/>
			<circle id="XMLID_896_" class="st5" cx="502.2" cy="723.7" r="3.2"/>
			<polygon id="XMLID_895_" class="st5" points="509.5,717.4 501.3,720.6 503.2,726.7 512.3,723.7 			"/>
			<circle id="XMLID_894_" class="st4" cx="511" cy="720.5" r="3.4"/>
			<polygon id="XMLID_893_" class="st2" points="365.5,718.8 328.5,731.3 328.5,738.7 365.5,741 			"/>
			<path id="XMLID_892_" class="st2" d="M509.4,744.9h-6.8v-21.8c2.8-1.9,1.6,3.7,6.8,1.6V744.9z"/>
			<circle id="XMLID_891_" class="st5" cx="412.4" cy="719.6" r="3.2"/>
			<polygon id="XMLID_890_" class="st5" points="419.6,713.3 411.5,716.5 413.4,722.6 422.4,719.6 			"/>
			<circle id="XMLID_889_" class="st4" cx="421.1" cy="716.4" r="3.4"/>
			<path id="XMLID_888_" class="st2" d="M419.5,740.8h-6.8v-21.8c2.8-1.9,1.6,3.7,6.8,1.6V740.8z"/>
			<circle id="XMLID_887_" class="st5" cx="395.4" cy="719.6" r="3.2"/>
			<polygon id="XMLID_886_" class="st5" points="402.6,713.3 394.5,716.5 396.3,722.6 405.4,719.6 			"/>
			<circle id="XMLID_885_" class="st4" cx="404.1" cy="716.4" r="3.4"/>
			<path id="XMLID_884_" class="st2" d="M402.5,740.8h-6.8v-21.8c2.8-1.9,1.6,3.7,6.8,1.6V740.8z"/>
			<polygon id="XMLID_883_" class="st2" points="15.7,736.3 28.5,729.9 28.5,740.7 15.7,745.8 			"/>
			<polygon id="XMLID_882_" class="st5" points="28.5,729.9 54.5,729.9 58.9,740.3 28.5,740.7 			"/>
			<polygon id="XMLID_881_" class="st6" points="75.2,720.2 759.5,757 763,995.3 184.5,976.2 79.3,997 			"/>
			<line id="XMLID_880_" class="st9" x1="75.8" y1="757.7" x2="758.6" y2="790.3"/>
			<line id="XMLID_879_" class="st9" x1="76" y1="776.8" x2="758.6" y2="806.2"/>
			<line id="XMLID_878_" class="st9" x1="75.5" y1="738.7" x2="758.3" y2="773.5"/>
			<line id="XMLID_877_" class="st9" x1="76.3" y1="795.8" x2="758.9" y2="823.9"/>
			<line id="XMLID_876_" class="st9" x1="76.6" y1="814.9" x2="758.9" y2="841.6"/>
			<line id="XMLID_875_" class="st9" x1="76.9" y1="833.9" x2="759.1" y2="859.2"/>
			<line id="XMLID_874_" class="st9" x1="77.2" y1="852.9" x2="759.3" y2="876.9"/>
			<line id="XMLID_873_" class="st9" x1="77.5" y1="872" x2="759.7" y2="894.6"/>
			<line id="XMLID_872_" class="st9" x1="77.8" y1="891" x2="761.5" y2="912.3"/>
			<line id="XMLID_871_" class="st9" x1="78" y1="910.1" x2="761.5" y2="930"/>
			<line id="XMLID_870_" class="st9" x1="78.3" y1="929.2" x2="761.5" y2="947.7"/>
			<line id="XMLID_869_" class="st9" x1="78.6" y1="948.2" x2="761.5" y2="965.3"/>
			<line id="XMLID_868_" class="st9" x1="78.9" y1="967.3" x2="761.5" y2="983"/>
			<line id="XMLID_867_" class="st9" x1="116.2" y1="729.4" x2="119.7" y2="990"/>
			<line id="XMLID_866_" class="st9" x1="154.2" y1="729.4" x2="157.8" y2="983"/>
			<line id="XMLID_865_" class="st9" x1="188.9" y1="732" x2="192.8" y2="979.4"/>
			<line id="XMLID_864_" class="st9" x1="230.2" y1="733.5" x2="233.2" y2="984.2"/>
			<line id="XMLID_863_" class="st9" x1="270.6" y1="735.9" x2="276.3" y2="994.3"/>
			<line id="XMLID_862_" class="st9" x1="311.6" y1="738.7" x2="314" y2="994.3"/>
			<line id="XMLID_861_" class="st9" x1="350.8" y1="741" x2="356.1" y2="986.9"/>
			<line id="XMLID_860_" class="st9" x1="391.2" y1="741" x2="393.3" y2="991.3"/>
			<line id="XMLID_859_" class="st9" x1="469.6" y1="748.4" x2="474" y2="988.3"/>
			<line id="XMLID_858_" class="st9" x1="429.8" y1="744.7" x2="433.4" y2="1008.5"/>
			<line id="XMLID_857_" class="st9" x1="507.6" y1="751.1" x2="514.7" y2="999"/>
			<line id="XMLID_856_" class="st9" x1="546.5" y1="751.1" x2="553.6" y2="1001.7"/>
			<line id="XMLID_855_" class="st9" x1="583.8" y1="750.5" x2="591.4" y2="1000.4"/>
			<line id="XMLID_854_" class="st9" x1="622.5" y1="753.6" x2="629.7" y2="1004.4"/>
			<line id="XMLID_853_" class="st9" x1="659.1" y1="755.4" x2="664.4" y2="1012"/>
			<line id="XMLID_852_" class="st9" x1="726.8" y1="759.8" x2="730.4" y2="1005.3"/>
			<line id="XMLID_851_" class="st9" x1="690.3" y1="759.4" x2="695.6" y2="1011.1"/>
			<polygon id="XMLID_850_" class="st5" points="75.2,720.2 75.2,728.3 759.6,764.3 759.5,757 			"/>
			<polygon id="XMLID_849_" class="st5" points="184.5,976.2 884.8,999.3 891.3,1229.8 184.5,1170.4 			"/>
			<polygon id="XMLID_848_" class="st5" points="75.2,720.2 79.3,997 84.4,996 80.7,722.8 			"/>
			<polygon id="XMLID_847_" class="st5" points="759.5,757 763,995.3 758.8,995.2 754.7,757.7 			"/>
			<polygon id="XMLID_846_" class="st5" points="82.3,991.3 178.5,989.5 79.3,997 			"/>
			<polygon id="XMLID_845_" class="st2" points="-59.6,778.1 -54.3,1229.8 184.5,1170.4 184.5,976.2 79.3,997 75.2,720.2 			"/>
			<polygon id="XMLID_844_" class="st4" points="873.2,1055 204.1,1035.1 204.1,1015.4 872.6,1036.6 			"/>
			<polygon id="XMLID_843_" class="st4" points="874.6,1108.1 204.1,1092 204.1,1072.2 874.1,1089.6 			"/>
			<polygon id="XMLID_842_" class="st4" points="876.1,1161.4 204.1,1149.2 204.1,1129.3 875.6,1142.8 			"/>
			<polygon id="XMLID_841_" class="st6" points="329.3,1037.1 312.8,1036.6 312.7,1020.6 329.2,1021.1 			"/>
			<polygon id="XMLID_840_" class="st6" points="348.1,1037.7 331.6,1037.2 331.5,1021.2 348,1021.7 			"/>
			<polygon id="XMLID_839_" class="st6" points="373.1,1038.4 356.7,1037.9 356.6,1022 373,1022.5 			"/>
			<polygon id="XMLID_838_" class="st6" points="391.7,1039 375.3,1038.5 375.2,1022.6 391.5,1023.1 			"/>
			<polygon id="XMLID_837_" class="st6" points="416.4,1039.7 400.2,1039.2 400,1023.4 416.3,1023.9 			"/>
			<polygon id="XMLID_836_" class="st6" points="434.9,1040.3 418.7,1039.8 418.5,1024 434.7,1024.5 			"/>
			<polygon id="XMLID_835_" class="st6" points="459.1,1041 443,1040.5 442.8,1024.7 458.9,1025.2 			"/>
			<polygon id="XMLID_834_" class="st6" points="477.4,1041.5 461.3,1041.1 461.1,1025.3 477.2,1025.8 			"/>
			<polygon id="XMLID_833_" class="st6" points="501.7,1042.3 485.7,1041.8 485.5,1026.1 501.5,1026.6 			"/>
			<polygon id="XMLID_832_" class="st6" points="519.8,1042.8 503.9,1042.3 503.7,1026.6 519.6,1027.1 			"/>
			<polygon id="XMLID_831_" class="st6" points="543.9,1043.5 528.1,1043.1 527.9,1027.4 543.7,1027.9 			"/>
			<polygon id="XMLID_830_" class="st6" points="561.9,1044.1 546.1,1043.6 545.9,1028 561.6,1028.5 			"/>
			<polygon id="XMLID_829_" class="st6" points="585.8,1044.8 570.1,1044.3 569.8,1028.7 585.5,1029.2 			"/>
			<polygon id="XMLID_828_" class="st6" points="603.5,1045.3 587.9,1044.8 587.7,1029.3 603.3,1029.8 			"/>
			<polygon id="XMLID_827_" class="st6" points="626.9,1046 611.4,1045.5 611.1,1030 626.7,1030.5 			"/>
			<polygon id="XMLID_826_" class="st6" points="644.6,1046.5 629.1,1046.1 628.8,1030.6 644.3,1031.1 			"/>
			<polygon id="XMLID_825_" class="st6" points="668.1,1047.2 652.6,1046.8 652.3,1031.3 667.8,1031.8 			"/>
			<polygon id="XMLID_824_" class="st6" points="685.5,1047.8 670.2,1047.3 669.9,1031.9 685.2,1032.4 			"/>
			<polygon id="XMLID_823_" class="st6" points="708.8,1048.5 693.5,1048 693.2,1032.6 708.5,1033.1 			"/>
			<polygon id="XMLID_822_" class="st6" points="726.2,1049 710.9,1048.5 710.6,1033.2 725.8,1033.7 			"/>
			<polygon id="XMLID_821_" class="st6" points="749.2,1049.7 734.1,1049.2 733.7,1033.9 748.9,1034.4 			"/>
			<polygon id="XMLID_820_" class="st6" points="766.4,1050.2 751.3,1049.7 751,1034.4 766,1034.9 			"/>
			<polygon id="XMLID_819_" class="st6" points="789,1050.9 774,1050.4 773.6,1035.2 788.6,1035.6 			"/>
			<polygon id="XMLID_818_" class="st6" points="806,1051.4 791.1,1050.9 790.7,1035.7 805.7,1036.2 			"/>
			<polygon id="XMLID_817_" class="st6" points="828.7,1052 813.8,1051.6 813.4,1036.4 828.3,1036.9 			"/>
			<polygon id="XMLID_816_" class="st6" points="845.6,1052.6 830.8,1052.1 830.4,1037 845.2,1037.4 			"/>
			<polygon id="XMLID_815_" class="st6" points="868.1,1053.2 853.3,1052.8 852.9,1037.7 867.7,1038.1 			"/>
			<polygon id="XMLID_814_" class="st6" points="287.1,1035.8 274.6,1035.5 274.6,1019.4 287.1,1019.8 			"/>
			<polygon id="XMLID_813_" class="st6" points="290.6,1019.9 303.1,1020.3 303.1,1036.3 290.7,1035.9 			"/>
			<polygon id="XMLID_812_" class="st6" points="248.2,1018.6 265,1019.1 265,1035.2 248.2,1034.7 			"/>
			<polygon id="XMLID_811_" class="st6" points="229,1018 245.9,1018.5 245.9,1034.6 229.1,1034.1 			"/>
			<polygon id="XMLID_810_" class="st6" points="209.8,1017.4 226.7,1017.9 226.7,1034 209.8,1033.5 			"/>
			<polygon id="XMLID_809_" class="st6" points="329.6,1093.3 313,1092.9 312.9,1076.8 329.5,1077.2 			"/>
			<polygon id="XMLID_808_" class="st6" points="348.4,1093.7 331.9,1093.3 331.8,1077.3 348.3,1077.7 			"/>
			<polygon id="XMLID_807_" class="st6" points="373.5,1094.3 357,1093.9 356.9,1077.9 373.4,1078.4 			"/>
			<polygon id="XMLID_806_" class="st6" points="392.1,1094.8 375.7,1094.4 375.6,1078.4 392,1078.8 			"/>
			<polygon id="XMLID_805_" class="st6" points="416.9,1095.4 400.6,1095 400.5,1079.1 416.8,1079.5 			"/>
			<polygon id="XMLID_804_" class="st6" points="435.4,1095.8 419.2,1095.4 419,1079.5 435.2,1080 			"/>
			<polygon id="XMLID_803_" class="st6" points="459.7,1096.4 443.5,1096 443.4,1080.2 459.5,1080.6 			"/>
			<polygon id="XMLID_802_" class="st6" points="478,1096.9 461.9,1096.5 461.7,1080.6 477.8,1081.1 			"/>
			<polygon id="XMLID_801_" class="st6" points="502.4,1097.4 486.4,1097.1 486.2,1081.3 502.2,1081.7 			"/>
			<polygon id="XMLID_800_" class="st6" points="520.5,1097.9 504.6,1097.5 504.4,1081.7 520.3,1082.1 			"/>
			<polygon id="XMLID_799_" class="st6" points="544.7,1098.5 528.8,1098.1 528.6,1082.4 544.5,1082.8 			"/>
			<polygon id="XMLID_798_" class="st6" points="562.7,1098.9 546.9,1098.5 546.6,1082.8 562.4,1083.2 			"/>
			<polygon id="XMLID_797_" class="st6" points="586.6,1099.5 570.9,1099.1 570.7,1083.4 586.4,1083.9 			"/>
			<polygon id="XMLID_796_" class="st6" points="604.5,1099.9 588.8,1099.5 588.5,1083.9 604.2,1084.3 			"/>
			<polygon id="XMLID_795_" class="st6" points="627.9,1100.5 612.3,1100.1 612,1084.5 627.6,1084.9 			"/>
			<polygon id="XMLID_794_" class="st6" points="645.6,1100.9 630,1100.5 629.8,1085 645.3,1085.4 			"/>
			<polygon id="XMLID_793_" class="st6" points="669.1,1101.5 653.7,1101.1 653.4,1085.6 668.8,1086 			"/>
			<polygon id="XMLID_792_" class="st6" points="686.6,1101.9 671.2,1101.5 670.9,1086 686.3,1086.4 			"/>
			<polygon id="XMLID_791_" class="st6" points="710,1102.5 694.6,1102.1 694.3,1086.6 709.6,1087 			"/>
			<polygon id="XMLID_790_" class="st6" points="727.3,1102.9 712.1,1102.5 711.7,1087.1 727,1087.5 			"/>
			<polygon id="XMLID_789_" class="st6" points="750.5,1103.4 735.3,1103.1 734.9,1087.7 750.1,1088.1 			"/>
			<polygon id="XMLID_788_" class="st6" points="767.7,1103.8 752.5,1103.5 752.2,1088.1 767.3,1088.5 			"/>
			<polygon id="XMLID_787_" class="st6" points="790.3,1104.4 775.3,1104 774.9,1088.7 789.9,1089.1 			"/>
			<polygon id="XMLID_786_" class="st6" points="807.4,1104.8 792.4,1104.4 792,1089.2 807,1089.5 			"/>
			<polygon id="XMLID_785_" class="st6" points="830.1,1105.4 815.2,1105 814.8,1089.7 829.7,1090.1 			"/>
			<polygon id="XMLID_784_" class="st6" points="847,1105.8 832.2,1105.4 831.8,1090.2 846.6,1090.6 			"/>
			<polygon id="XMLID_783_" class="st6" points="869.6,1106.3 854.8,1106 854.4,1090.8 869.2,1091.1 			"/>
			<polygon id="XMLID_782_" class="st6" points="287.3,1092.2 274.8,1091.9 274.7,1075.8 287.3,1076.1 			"/>
			<polygon id="XMLID_781_" class="st6" points="290.8,1076.2 303.3,1076.5 303.4,1092.6 290.9,1092.3 			"/>
			<polygon id="XMLID_780_" class="st6" points="248.3,1075.1 265.1,1075.6 265.1,1091.7 248.3,1091.3 			"/>
			<polygon id="XMLID_779_" class="st6" points="229.1,1074.6 246,1075.1 246,1091.2 229.1,1090.8 			"/>
			<polygon id="XMLID_778_" class="st6" points="209.8,1074.1 226.8,1074.6 226.8,1090.8 209.8,1090.4 			"/>
			<polygon id="XMLID_777_" class="st6" points="329.9,1149.7 313.3,1149.4 313.2,1133.2 329.8,1133.6 			"/>
			<polygon id="XMLID_776_" class="st6" points="348.8,1150 332.2,1149.7 332.1,1133.6 348.7,1134 			"/>
			<polygon id="XMLID_775_" class="st6" points="373.9,1150.5 357.4,1150.2 357.3,1134.1 373.7,1134.5 			"/>
			<polygon id="XMLID_774_" class="st6" points="392.5,1150.8 376.1,1150.5 376,1134.5 392.4,1134.8 			"/>
			<polygon id="XMLID_773_" class="st6" points="417.4,1151.3 401.1,1151 400.9,1135 417.3,1135.3 			"/>
			<polygon id="XMLID_772_" class="st6" points="435.9,1151.6 419.7,1151.3 419.5,1135.4 435.8,1135.7 			"/>
			<polygon id="XMLID_771_" class="st6" points="460.3,1152.1 444.1,1151.8 443.9,1135.9 460.1,1136.2 			"/>
			<polygon id="XMLID_770_" class="st6" points="478.6,1152.4 462.5,1152.1 462.3,1136.2 478.5,1136.6 			"/>
			<polygon id="XMLID_769_" class="st6" points="503.1,1152.9 487,1152.6 486.8,1136.7 502.9,1137 			"/>
			<polygon id="XMLID_768_" class="st6" points="521.3,1153.2 505.3,1152.9 505.1,1137.1 521.1,1137.4 			"/>
			<polygon id="XMLID_767_" class="st6" points="545.5,1153.7 529.6,1153.4 529.4,1137.6 545.3,1137.9 			"/>
			<polygon id="XMLID_766_" class="st6" points="563.5,1154 547.7,1153.7 547.4,1137.9 563.3,1138.2 			"/>
			<polygon id="XMLID_765_" class="st6" points="587.5,1154.4 571.7,1154.1 571.5,1138.4 587.3,1138.7 			"/>
			<polygon id="XMLID_764_" class="st6" points="605.4,1154.8 589.7,1154.5 589.4,1138.8 605.1,1139.1 			"/>
			<polygon id="XMLID_763_" class="st6" points="628.9,1155.2 613.2,1154.9 613,1139.2 628.6,1139.6 			"/>
			<polygon id="XMLID_762_" class="st6" points="646.6,1155.5 631,1155.2 630.7,1139.6 646.3,1139.9 			"/>
			<polygon id="XMLID_761_" class="st6" points="670.2,1155.9 654.7,1155.7 654.4,1140.1 669.9,1140.4 			"/>
			<polygon id="XMLID_760_" class="st6" points="687.7,1156.3 672.3,1156 672,1140.4 687.4,1140.7 			"/>
			<polygon id="XMLID_759_" class="st6" points="711.1,1156.7 695.8,1156.4 695.4,1140.9 710.8,1141.2 			"/>
			<polygon id="XMLID_758_" class="st6" points="728.5,1157 713.2,1156.7 712.9,1141.2 728.2,1141.5 			"/>
			<polygon id="XMLID_757_" class="st6" points="751.7,1157.4 736.5,1157.2 736.1,1141.7 751.3,1142 			"/>
			<polygon id="XMLID_756_" class="st6" points="768.9,1157.8 753.8,1157.5 753.4,1142.1 768.6,1142.4 			"/>
			<polygon id="XMLID_755_" class="st6" points="791.6,1158.2 776.5,1157.9 776.2,1142.5 791.3,1142.8 			"/>
			<polygon id="XMLID_754_" class="st6" points="808.7,1158.5 793.7,1158.2 793.3,1142.9 808.4,1143.2 			"/>
			<polygon id="XMLID_753_" class="st6" points="831.5,1158.9 816.6,1158.6 816.2,1143.3 831.1,1143.6 			"/>
			<polygon id="XMLID_752_" class="st6" points="848.5,1159.2 833.6,1158.9 833.2,1143.6 848.1,1143.9 			"/>
			<polygon id="XMLID_751_" class="st6" points="871.1,1159.6 856.2,1159.4 855.8,1144.1 870.6,1144.4 			"/>
			<polygon id="XMLID_750_" class="st6" points="287.5,1148.9 274.9,1148.7 274.9,1132.5 287.5,1132.7 			"/>
			<polygon id="XMLID_749_" class="st6" points="291,1132.8 303.5,1133.1 303.6,1149.2 291.1,1149 			"/>
			<polygon id="XMLID_748_" class="st6" points="248.4,1132 265.2,1132.3 265.3,1148.5 248.4,1148.2 			"/>
			<polygon id="XMLID_747_" class="st6" points="229.2,1131.6 246.1,1131.9 246.1,1148.2 229.2,1147.9 			"/>
			<polygon id="XMLID_746_" class="st6" points="209.9,1131.2 226.8,1131.5 226.9,1147.8 209.9,1147.5 			"/>
			<polygon id="XMLID_745_" class="st5" points="-49.4,1050.5 -33.7,1046.8 -34.1,1017.9 -49.9,1021.7 			"/>
			<polygon id="XMLID_744_" class="st5" points="-50.4,990 -34.6,985.3 -34.9,967.1 -50.6,971.8 			"/>
			<polygon id="XMLID_743_" class="st5" points="-48.9,1080.8 -33.2,1078 -33.7,1049.1 -49.4,1052.8 			"/>
			<polygon id="XMLID_742_" class="st5" points="-48.4,1111.1 -32.7,1109.2 -33.2,1080.3 -48.9,1083.1 			"/>
			<path id="XMLID_741_" class="st5" d="M-159.5,1228.7h-27.8c0,0,0-28.5,0-32.5s27.8-3.6,27.8,0S-159.5,1228.7-159.5,1228.7z"/>
			<path id="XMLID_740_" class="st2" d="M-179.8,1237.6h-25.4c0,0,0-26,0-29.7c0-3.7,25.4-3.3,25.4,0
				C-179.8,1211.2-179.8,1237.6-179.8,1237.6z"/>
			<path id="XMLID_739_" class="st2" d="M-261.8,1231.6h-28.1c0,0,0-18.7,0-22.1s28.1-3.3,28.1,0S-261.8,1231.6-261.8,1231.6z"/>
			<rect id="XMLID_738_" x="-237.4" y="1211.7" class="st5" width="22.4" height="15.1"/>
			<polygon id="XMLID_737_" class="st2" points="-237.4,1211.7 -246.9,1217.9 -246.9,1228.7 -237.4,1220 			"/>
			<polygon id="XMLID_736_" class="st5" points="-125.9,1220 -633.4,1221.3 -633.4,1420.5 -126.8,1393.2 			"/>
			<polygon id="XMLID_735_" class="st2" points="-633.4,1221.3 -724.3,1264.3 -726.7,1402.1 -633.4,1420.5 			"/>
			<polygon id="XMLID_734_" class="st4" points="-158.2,1378.2 -271.6,1378.8 -271.6,1348.2 -158.2,1347.6 			"/>
			<polygon id="XMLID_733_" class="st4" points="-308.3,1297.2 -435.3,1298.9 -435.3,1245.8 -434.5,1245.4 -323.4,1264.9
				-307.4,1296.7 			"/>
			<polygon id="XMLID_732_" class="st4" points="-712.6,1302 -708.1,1302.6 -706.1,1305.4 -706.1,1327.4 -709.3,1330.5
				-725.5,1335.1 -727.9,1332.9 			"/>
			<polygon id="XMLID_731_" class="st5" points="-588.5,1300.6 -474.9,1299.7 -474.9,1411.9 -588.5,1418 			"/>
			<rect id="XMLID_730_" x="-271.8" y="1270" class="st4" width="59.5" height="21.1"/>
			<rect id="XMLID_729_" x="-249.5" y="1272.7" class="st6" width="15" height="15.7"/>
			<rect id="XMLID_728_" x="-229.9" y="1272.7" class="st6" width="15" height="15.7"/>
			<rect id="XMLID_727_" x="-269.1" y="1272.7" class="st6" width="15" height="15.7"/>
			<rect id="XMLID_726_" x="-271.8" y="1308.4" class="st4" width="23.5" height="15.7"/>
			<rect id="XMLID_725_" x="-271.8" y="1270" class="st4" width="59.5" height="1"/>
			<polygon id="XMLID_724_" class="st4" points="-474.9,1411.9 -480.5,1412.2 -480.5,1302.4 -586.7,1303.3 -586.7,1418 -588.5,1418
				-588.5,1300.6 -474.9,1299.7 			"/>
			<polygon id="XMLID_723_" class="st2" points="-711.7,1328.3 -709.3,1325.3 -709.3,1304.5 -712.6,1302 -727.5,1307.3
				-727.9,1332.9 			"/>
			<polygon id="XMLID_722_" class="st2" points="-307.4,1296.7 -434.5,1298.4 -434.5,1245.4 -307.4,1243.7 			"/>
			<polygon id="XMLID_721_" class="st2" points="-355.8,1364 -349.8,1357.4 -349.8,1352.3 -352.8,1345.5 -355.8,1345.5 			"/>
			<polygon id="XMLID_720_" class="st5" points="-349.8,1352.3 -280.6,1351.4 -280.6,1356.5 -349.8,1357.4 			"/>
			<polygon id="XMLID_719_" class="st4" points="-355.8,1364 -349.8,1357.4 -280.6,1356.5 -287.9,1362.4 			"/>
			<polygon id="XMLID_718_" class="st2" points="-352.8,1345.5 -287.1,1345.8 -280.6,1351.4 -349.8,1352.3 			"/>
			<polygon id="XMLID_717_" class="st2" points="-438.2,1344 -434.5,1358.3 -384,1357.4 -389.5,1344 			"/>
			<polygon id="XMLID_716_" class="st5" points="-384,1357.4 -384,1372.1 -434.6,1373.1 -434.5,1358.3 			"/>
			<polygon id="XMLID_715_" class="st2" points="-438.2,1344 -438.2,1373.1 -434.6,1373.1 -434.5,1358.3 			"/>
			<polygon id="XMLID_714_" class="st6" points="-242.8,1376 -267.2,1376.1 -267.2,1350.9 -242.8,1350.7 			"/>
			<polygon id="XMLID_713_" class="st6" points="-216.1,1375.8 -240.4,1376 -240.4,1350.7 -216.1,1350.6 			"/>
			<polygon id="XMLID_712_" class="st6" points="-189.4,1375.7 -213.7,1375.8 -213.7,1350.6 -189.4,1350.4 			"/>
			<polygon id="XMLID_711_" class="st6" points="-162.6,1375.5 -187,1375.7 -187,1350.4 -162.6,1350.3 			"/>
			<rect id="XMLID_710_" x="-159.1" y="1347.6" class="st4" width="1" height="30.6"/>
			<polygon id="XMLID_709_" class="st2" points="52,1403.8 49.2,1232.7 -65,1232.7 -127.4,1262.5 -126.8,1393.2 			"/>
			<polyline id="XMLID_708_" class="st2" points="49.2,1168.8 -125.9,1220 -155.7,1265.9 14.9,1233.4 49.2,1168.8 			"/>
			<polygon id="XMLID_707_" class="st5" points="52,1403.8 49.2,1220 833.7,1208.4 823,1396.4 			"/>
			<polygon id="XMLID_706_" class="st5" points="889.8,1175.4 49.2,1168.8 14.9,1233.4 885.8,1232.5 			"/>
			<polygon id="XMLID_705_" class="st4" points="-155.7,1265.9 -126.8,1264.1 49.2,1232.7 14.9,1233.4 			"/>
			<rect id="XMLID_704_" x="111.3" y="1325.3" class="st4" width="741.4" height="40.8"/>
			<rect id="XMLID_703_" x="157.6" y="1327.1" class="st4" width="24.6" height="37.2"/>
			<rect id="XMLID_702_" x="159.1" y="1328.6" class="st6" width="21.7" height="34.2"/>
			<rect id="XMLID_701_" x="113.1" y="1327.1" class="st4" width="24.6" height="37.2"/>
			<rect id="XMLID_700_" x="114.5" y="1328.6" class="st6" width="21.7" height="34.2"/>
			<rect id="XMLID_699_" x="246.7" y="1327.1" class="st4" width="24.6" height="37.2"/>
			<rect id="XMLID_698_" x="248.2" y="1328.6" class="st6" width="21.7" height="34.2"/>
			<rect id="XMLID_697_" x="202.2" y="1327.1" class="st4" width="24.6" height="37.2"/>
			<rect id="XMLID_696_" x="203.6" y="1328.6" class="st6" width="21.7" height="34.2"/>
			<rect id="XMLID_695_" x="291.3" y="1327.1" class="st4" width="24.6" height="37.2"/>
			<rect id="XMLID_694_" x="292.7" y="1328.6" class="st6" width="21.7" height="34.2"/>
			<rect id="XMLID_693_" x="380.4" y="1327.1" class="st4" width="24.6" height="37.2"/>
			<rect id="XMLID_692_" x="381.8" y="1328.6" class="st6" width="21.7" height="34.2"/>
			<rect id="XMLID_691_" x="335.8" y="1327.1" class="st4" width="24.6" height="37.2"/>
			<rect id="XMLID_690_" x="337.3" y="1328.6" class="st6" width="21.7" height="34.2"/>
			<rect id="XMLID_689_" x="469.5" y="1327.1" class="st4" width="24.6" height="37.2"/>
			<rect id="XMLID_688_" x="470.9" y="1328.6" class="st6" width="21.7" height="34.2"/>
			<rect id="XMLID_687_" x="424.9" y="1327.1" class="st4" width="24.6" height="37.2"/>
			<rect id="XMLID_686_" x="426.4" y="1328.6" class="st6" width="21.7" height="34.2"/>
			<rect id="XMLID_685_" x="514.2" y="1327.1" class="st4" width="24.6" height="37.2"/>
			<rect id="XMLID_684_" x="515.6" y="1328.6" class="st6" width="21.7" height="34.2"/>
			<rect id="XMLID_683_" x="558.7" y="1327.1" class="st4" width="24.6" height="37.2"/>
			<rect id="XMLID_682_" x="560.2" y="1328.6" class="st6" width="21.7" height="34.2"/>
			<rect id="XMLID_681_" x="647.8" y="1327.1" class="st6" width="24.6" height="37.2"/>
			<rect id="XMLID_680_" x="649.3" y="1328.6" class="st6" width="21.7" height="34.2"/>
			<rect id="XMLID_679_" x="603.2" y="1327.1" class="st6" width="24.6" height="37.2"/>
			<rect id="XMLID_678_" x="604.7" y="1328.6" class="st6" width="21.7" height="34.2"/>
			<rect id="XMLID_677_" x="692.5" y="1327.1" class="st6" width="24.6" height="37.2"/>
			<rect id="XMLID_676_" x="694" y="1328.6" class="st6" width="21.7" height="34.2"/>
			<rect id="XMLID_675_" x="781.6" y="1327.1" class="st6" width="24.6" height="37.2"/>
			<rect id="XMLID_674_" x="783.1" y="1328.6" class="st6" width="21.7" height="34.2"/>
			<rect id="XMLID_673_" x="737" y="1327.1" class="st6" width="24.6" height="37.2"/>
			<rect id="XMLID_672_" x="738.5" y="1328.6" class="st6" width="21.7" height="34.2"/>
			<rect id="XMLID_671_" x="826.3" y="1327.1" class="st6" width="24.6" height="37.2"/>
			<rect id="XMLID_670_" x="827.8" y="1328.6" class="st6" width="21.7" height="34.2"/>
			<rect id="XMLID_669_" x="111.3" y="1243.3" class="st4" width="741.4" height="40.8"/>
			<rect id="XMLID_668_" x="157.6" y="1245.1" class="st4" width="24.6" height="37.2"/>
			<rect id="XMLID_667_" x="159.1" y="1246.6" class="st6" width="21.7" height="34.2"/>
			<rect id="XMLID_666_" x="113.1" y="1245.1" class="st4" width="24.6" height="37.2"/>
			<rect id="XMLID_665_" x="114.5" y="1246.6" class="st6" width="21.7" height="34.2"/>
			<rect id="XMLID_664_" x="246.7" y="1245.1" class="st4" width="24.6" height="37.2"/>
			<rect id="XMLID_663_" x="248.2" y="1246.6" class="st6" width="21.7" height="34.2"/>
			<rect id="XMLID_662_" x="202.2" y="1245.1" class="st4" width="24.6" height="37.2"/>
			<rect id="XMLID_661_" x="203.6" y="1246.6" class="st6" width="21.7" height="34.2"/>
			<rect id="XMLID_607_" x="291.3" y="1245.1" class="st4" width="24.6" height="37.2"/>
			<rect id="XMLID_606_" x="292.7" y="1246.6" class="st6" width="21.7" height="34.2"/>
			<rect id="XMLID_605_" x="380.4" y="1245.1" class="st4" width="24.6" height="37.2"/>
			<rect id="XMLID_604_" x="381.8" y="1246.6" class="st6" width="21.7" height="34.2"/>
			<rect id="XMLID_603_" x="335.8" y="1245.1" class="st4" width="24.6" height="37.2"/>
			<rect id="XMLID_602_" x="337.3" y="1246.6" class="st6" width="21.7" height="34.2"/>
			<rect id="XMLID_601_" x="469.5" y="1245.1" class="st4" width="24.6" height="37.2"/>
			<rect id="XMLID_600_" x="470.9" y="1246.6" class="st6" width="21.7" height="34.2"/>
			<rect id="XMLID_599_" x="424.9" y="1245.1" class="st4" width="24.6" height="37.2"/>
			<rect id="XMLID_598_" x="426.4" y="1246.6" class="st6" width="21.7" height="34.2"/>
			<rect id="XMLID_597_" x="514.2" y="1245.1" class="st4" width="24.6" height="37.2"/>
			<rect id="XMLID_596_" x="515.6" y="1246.6" class="st6" width="21.7" height="34.2"/>
			<rect id="XMLID_595_" x="558.7" y="1245.1" class="st4" width="24.6" height="37.2"/>
			<rect id="XMLID_594_" x="560.2" y="1246.6" class="st6" width="21.7" height="34.2"/>
			<rect id="XMLID_593_" x="647.8" y="1245.1" class="st4" width="24.6" height="37.2"/>
			<rect id="XMLID_592_" x="649.3" y="1246.6" class="st6" width="21.7" height="34.2"/>
			<rect id="XMLID_591_" x="603.2" y="1245.1" class="st4" width="24.6" height="37.2"/>
			<rect id="XMLID_590_" x="604.7" y="1246.6" class="st6" width="21.7" height="34.2"/>
			<rect id="XMLID_589_" x="692.5" y="1245.1" class="st6" width="24.6" height="37.2"/>
			<rect id="XMLID_588_" x="694" y="1246.6" class="st6" width="21.7" height="34.2"/>
			<rect id="XMLID_587_" x="781.6" y="1245.1" class="st6" width="24.6" height="37.2"/>
			<rect id="XMLID_586_" x="783.1" y="1246.6" class="st6" width="21.7" height="34.2"/>
			<rect id="XMLID_585_" x="737" y="1245.1" class="st6" width="24.6" height="37.2"/>
			<rect id="XMLID_584_" x="738.5" y="1246.6" class="st6" width="21.7" height="34.2"/>
			<rect id="XMLID_583_" x="826.3" y="1245.1" class="st6" width="24.6" height="37.2"/>
			<rect id="XMLID_582_" x="827.8" y="1246.6" class="st6" width="21.7" height="34.2"/>
			<polygon id="XMLID_581_" class="st2" points="831.9,1180.4 831.9,1168.3 959.8,1152.1 971.1,1170.1 			"/>
			<polygon id="XMLID_580_" class="st2" points="1152.7,1146.9 1129.8,1140.7 1112.8,1231.4 1146.7,1246.7 1183,1223.1 			"/>
			<polygon id="XMLID_579_" class="st5" points="1073.7,1250 1073.7,1182 1073.7,1175.7 1058.8,1176.9 1129.8,1148.4 1129.8,1245.5
							"/>
			<polygon id="XMLID_578_" class="st5" points="1249.8,1236.6 1243.9,1141.9 1252.8,1146.1 1254,1142.5 1203.5,1119.3
				1142.3,1146.9 1144.4,1150.8 1151.2,1148.1 1154.8,1243.8 			"/>
			<polyline id="XMLID_577_" class="st2" points="1073.7,1245.8 1073.7,1182 758.9,1213.9 758.9,1283.6 1102.2,1293.4
				1073.7,1245.8 			"/>
			<polygon id="XMLID_576_" class="st5" points="1058.8,1182 750.8,1213.3 750.8,1209.8 1058.8,1176.9 			"/>
			<polygon id="XMLID_575_" class="st4" points="1073.7,1182 1073.7,1175.7 1058.8,1182 750.8,1213.3 758.9,1213.9 			"/>
			<polygon id="XMLID_574_" class="st5" points="959.8,1165.2 959.8,1152.1 1013.7,1126.9 1039,1137.2 1040,1149.5 			"/>
			<polygon id="XMLID_573_" class="st5" points="1144.4,1150.8 1129.8,1152.1 1129.8,1148.4 1142.3,1146.9 			"/>
			<polygon id="XMLID_572_" class="st5" points="1058.8,1182 1129.8,1152.1 1129.8,1148.4 1058.8,1176.9 			"/>
			<polygon id="XMLID_571_" class="st5" points="1013.7,1125.3 1044.7,1136.5 1039,1137.2 1013.7,1128.2 953.1,1155.4 953.1,1152.1
							"/>
			<polygon id="XMLID_570_" class="st5" points="953.1,1152.1 826.6,1167.2 826.6,1170.1 953.1,1155.4 			"/>
			<polygon id="XMLID_569_" class="st6" points="826.6,1167.2 889.8,1143.1 1013.7,1125.3 953.1,1152.1 			"/>
			<polygon id="XMLID_568_" class="st6" points="1142.3,1146.9 1129.8,1148.4 1058.8,1176.9 750.8,1209.8 831.9,1180.4
				959.8,1165.2 1018.6,1139.4 1203.5,1119.3 			"/>
			<polygon id="XMLID_567_" class="st4" points="1252.8,1146.1 1244.2,1146.9 1243.9,1141.9 			"/>
			<polygon id="XMLID_566_" class="st6" points="1208,1192.3 1195.2,1192.3 1196,1216.4 1209,1216.4 			"/>
			<polygon id="XMLID_565_" class="st6" points="1225.7,1192.3 1212.9,1192.3 1213.9,1216.4 1226.8,1216.4 			"/>
			<polygon id="XMLID_564_" class="st6" points="1243.3,1192.3 1230.5,1192.3 1231.7,1216.4 1244.6,1216.4 			"/>
			<polygon id="XMLID_563_" class="st6" points="1190.3,1192.3 1177.5,1192.3 1178.2,1216.4 1191.1,1216.4 			"/>
			<polygon id="XMLID_562_" class="st6" points="1172.7,1192.3 1159.9,1192.3 1160.4,1216.4 1173.3,1216.4 			"/>
			<polygon id="XMLID_561_" class="st4" points="1073.7,1215.5 1051.6,1217.1 1051.6,1191.9 1073.7,1190.1 			"/>
			<polygon id="XMLID_560_" class="st4" points="1052.6,1192.4 1073.7,1190.8 1073.7,1190.1 1051.6,1191.9 1051.6,1217.1
				1052.6,1217 			"/>
			<polygon id="XMLID_559_" class="st6" points="1065.8,1213.2 1055.4,1214 1055.4,1194.4 1065.8,1193.5 			"/>
			<polygon id="XMLID_558_" class="st4" points="1030.2,1219 1013.6,1220.2 1013.6,1195.4 1030.2,1194 			"/>
			<polygon id="XMLID_557_" class="st4" points="1014.5,1195.9 1030.2,1194.6 1030.2,1194 1013.6,1195.4 1013.6,1220.2
				1014.5,1220.1 			"/>
			<polygon id="XMLID_556_" class="st6" points="1027.3,1216.4 1017.2,1217.1 1017.2,1197.9 1027.3,1197 			"/>
			<polygon id="XMLID_555_" class="st4" points="1000.7,1221.1 984.5,1222.3 984.5,1197.9 1000.7,1196.5 			"/>
			<polygon id="XMLID_554_" class="st4" points="985.4,1198.4 1000.7,1197.1 1000.7,1196.5 984.5,1197.9 984.5,1222.3 985.4,1222.2
							"/>
			<polygon id="XMLID_553_" class="st6" points="997.9,1218.6 988.1,1219.3 988.1,1200.3 997.9,1199.5 			"/>
			<polygon id="XMLID_552_" class="st4" points="971.9,1223.2 956.2,1224.4 956.2,1200.3 971.9,1198.9 			"/>
			<polygon id="XMLID_551_" class="st4" points="957.1,1200.7 971.9,1199.5 971.9,1198.9 956.2,1200.3 956.2,1224.4 957.1,1224.3
							"/>
			<polygon id="XMLID_550_" class="st6" points="969.2,1220.7 959.6,1221.5 959.6,1202.6 969.2,1201.9 			"/>
			<polygon id="XMLID_549_" class="st4" points="943.9,1225.3 928.5,1226.4 928.5,1202.6 943.9,1201.3 			"/>
			<polygon id="XMLID_548_" class="st4" points="929.4,1203.1 943.9,1201.9 943.9,1201.3 928.5,1202.6 928.5,1226.4 929.4,1226.4
							"/>
			<polygon id="XMLID_547_" class="st6" points="941.2,1222.8 931.9,1223.5 931.9,1205 941.2,1204.2 			"/>
			<polygon id="XMLID_546_" class="st4" points="916.5,1227.3 901.5,1228.4 901.5,1204.9 916.5,1203.6 			"/>
			<polygon id="XMLID_545_" class="st4" points="902.4,1205.3 916.5,1204.2 916.5,1203.6 901.5,1204.9 901.5,1228.4 902.4,1228.4
							"/>
			<polygon id="XMLID_544_" class="st6" points="913.9,1224.9 904.8,1225.6 904.8,1207.2 913.9,1206.5 			"/>
			<polygon id="XMLID_543_" class="st4" points="889.8,1229.3 875.2,1230.4 875.2,1207.1 889.8,1205.9 			"/>
			<polygon id="XMLID_542_" class="st4" points="876,1207.6 889.8,1206.4 889.8,1205.9 875.2,1207.1 875.2,1230.4 876,1230.3 			"/>
			<polygon id="XMLID_541_" class="st6" points="887.3,1226.9 878.4,1227.5 878.4,1209.4 887.3,1208.7 			"/>
			<polygon id="XMLID_540_" class="st4" points="863.8,1231.2 849.5,1232.3 849.5,1209.3 863.8,1208 			"/>
			<polygon id="XMLID_539_" class="st4" points="850.3,1209.7 863.8,1208.6 863.8,1208 849.5,1209.3 849.5,1232.3 850.3,1232.2
				"/>
			<polygon id="XMLID_538_" class="st6" points="861.3,1228.8 852.6,1229.5 852.6,1211.5 861.3,1210.8 			"/>
			<polygon id="XMLID_537_" class="st4" points="838.3,1233.1 824.4,1234.1 824.4,1211.4 838.3,1210.2 			"/>
			<polygon id="XMLID_536_" class="st4" points="825.2,1211.8 838.3,1210.7 838.3,1210.2 824.4,1211.4 824.4,1234.1 825.2,1234
				"/>
			<polygon id="XMLID_535_" class="st6" points="835.9,1230.7 827.5,1231.3 827.5,1213.6 835.9,1212.9 			"/>
			<polygon id="XMLID_534_" class="st4" points="813.5,1234.9 799.9,1235.9 799.9,1213.4 813.5,1212.3 			"/>
			<polygon id="XMLID_533_" class="st4" points="800.6,1213.9 813.5,1212.8 813.5,1212.3 799.9,1213.4 799.9,1235.9 800.6,1235.9
							"/>
			<polygon id="XMLID_532_" class="st6" points="811.1,1232.6 802.9,1233.2 802.9,1215.7 811.1,1215 			"/>
			<polygon id="XMLID_531_" class="st4" points="789.2,1236.7 775.9,1237.7 775.9,1215.5 789.2,1214.3 			"/>
			<polygon id="XMLID_530_" class="st4" points="776.7,1215.9 789.2,1214.9 789.2,1214.3 775.9,1215.5 775.9,1237.7 776.7,1237.6
							"/>
			<polygon id="XMLID_529_" class="st6" points="786.9,1234.4 778.8,1235 778.8,1217.7 786.9,1217 			"/>
			<polygon id="XMLID_528_" class="st10" points="1075.6,1193.5 1075.6,1212.9 1100.4,1211.6 1100.4,1192.1 			"/>
			<polygon id="XMLID_527_" class="st4" points="1073.7,1215.5 1102.8,1214.6 1102.7,1189.2 1073.7,1190.1 			"/>
			<polygon id="XMLID_526_" class="st4" points="1073.7,1190.1 1102.7,1189.2 1102.8,1214.6 1102.1,1214.6 1102,1189.8
				1073.7,1190.8 			"/>
			<polygon id="XMLID_525_" class="st6" points="1093.1,1212.6 1100,1212.4 1099.9,1192.8 1093.1,1193 			"/>
			<polygon id="XMLID_524_" class="st6" points="1091.1,1193.1 1077.5,1193.5 1077.5,1213.1 1091.1,1212.7 			"/>
			<polygon id="XMLID_523_" class="st5" points="1890.4,1295.7 1890.4,1406.8 1603.5,1416 1572.6,1276.7 			"/>
			<polygon id="XMLID_522_" class="st6" points="1749.6,1247.6 1904.2,1290.4 1608,1296.6 1465,1249.4 1491.2,1228 			"/>
			<polygon id="XMLID_521_" class="st2" points="1413.1,1230.4 1475.5,1214.7 1475.5,1248.5 1609.8,1291.7 1608.9,1301.1
				1602.4,1299.3 1603.5,1416 1542.9,1416 1413.1,1254.2 			"/>
			<polygon id="XMLID_520_" class="st5" points="1541.1,1303.1 1542.9,1416 1251.9,1427.6 1251.9,1307.6 1271.2,1285.5 			"/>
			<polygon id="XMLID_519_" class="st6" points="661.5,1243.5 1035.1,1245.4 1094.8,1248.1 996.3,1389.3 			"/>
			<polygon id="XMLID_518_" class="st2" points="1136.6,1255.3 1265.5,1299.3 1265.5,1307.6 1251.9,1307.6 1251.9,1427.6
				1136.6,1427.6 1083.8,1305.2 			"/>
			<polygon id="XMLID_517_" class="st2" points="590.2,1399.1 590.2,1266 661.5,1243.5 982.2,1267.8 981.6,1276.1 986.4,1275.5
				987,1267.8 1136.6,1229.8 1136.6,1427.6 			"/>
			<polygon id="XMLID_502_" class="st5" points="1136.6,1229.8 1413.1,1230.4 1413.1,1254.2 1136.6,1255.3 			"/>
			<polygon id="XMLID_489_" class="st4" points="1265.5,1299.3 1553.6,1296 1553.6,1302.9 1265.5,1307.6 			"/>
			<polygon id="XMLID_481_" class="st6" points="1413.1,1254.2 1553.6,1296 1265.5,1299.3 1136.6,1255.3 			"/>
			<polygon id="XMLID_440_" class="st5" points="1475.5,1214.7 1747.4,1217.3 1749.6,1247.6 1475.5,1248.5 			"/>
			<polygon id="XMLID_438_" class="st4" points="1609.8,1291.7 1904.2,1290.4 1904.7,1298.9 1608.9,1301.1 			"/>
			<polygon id="XMLID_364_" class="st4" points="1531.3,1360.8 1268.9,1366.7 1268.7,1327.2 1531.1,1321.3 			"/>
			<polygon id="XMLID_363_" class="st4" points="1126.8,1332.1 1100.9,1333.5 1100.9,1377.1 1126.8,1377.4 			"/>
			<polygon id="XMLID_362_" class="st4" points="1101.7,1333.9 1126.8,1332.7 1126.8,1332.1 1100.9,1333.5 1100.9,1377.1
				1101.7,1377.1 			"/>
			<polygon id="XMLID_361_" class="st6" points="1109.8,1336.5 1103.5,1336.7 1103.7,1368.8 1109.9,1368.8 			"/>
			<polygon id="XMLID_360_" class="st6" points="1113.8,1336.3 1113.8,1368.8 1124.5,1368.8 1124.5,1335.8 			"/>
			<polygon id="XMLID_359_" class="st6" points="1287.4,1363.6 1271.6,1363.9 1271.4,1329.8 1287.2,1329.4 			"/>
			<polygon id="XMLID_358_" class="st6" points="1320.3,1362.9 1293,1363.5 1292.9,1329.3 1320.2,1328.7 			"/>
			<polygon id="XMLID_357_" class="st6" points="1386.5,1361.4 1359.1,1362 1359,1327.8 1386.3,1327.2 			"/>
			<polygon id="XMLID_356_" class="st6" points="1441,1360.2 1413.7,1360.8 1413.5,1326.6 1440.8,1326 			"/>
			<polygon id="XMLID_355_" class="st6" points="1325.9,1328.6 1341.6,1328.2 1341.8,1362.4 1326,1362.7 			"/>
			<polygon id="XMLID_354_" class="st6" points="1392.2,1327.1 1408,1326.7 1408.2,1360.9 1392.4,1361.2 			"/>
			<polygon id="XMLID_353_" class="st6" points="1474.1,1359.4 1458.3,1359.8 1458.2,1325.6 1474,1325.3 			"/>
			<polygon id="XMLID_352_" class="st6" points="1507.1,1358.7 1479.8,1359.3 1479.7,1325.1 1507,1324.5 			"/>
			<polygon id="XMLID_351_" class="st6" points="1512.6,1324.4 1528.4,1324.1 1528.6,1358.2 1512.8,1358.6 			"/>
			<polygon id="XMLID_350_" class="st4" points="1878.7,1354.6 1616.4,1360.4 1616.2,1320.9 1878.6,1315.1 			"/>
			<polygon id="XMLID_349_" class="st6" points="1634.8,1357.4 1619,1357.7 1618.9,1323.6 1634.7,1323.2 			"/>
			<polygon id="XMLID_330_" class="st6" points="1667.8,1356.6 1640.5,1357.2 1640.4,1323.1 1667.7,1322.5 			"/>
			<polygon id="XMLID_329_" class="st6" points="1734,1355.1 1706.6,1355.8 1706.5,1321.6 1733.8,1321 			"/>
			<polygon id="XMLID_328_" class="st6" points="1788.5,1353.9 1761.1,1354.5 1761,1320.4 1788.3,1319.8 			"/>
			<polygon id="XMLID_327_" class="st6" points="1673.3,1322.3 1689.1,1322 1689.3,1356.1 1673.5,1356.5 			"/>
			<polygon id="XMLID_326_" class="st6" points="1739.7,1320.9 1755.5,1320.5 1755.6,1354.7 1739.8,1355 			"/>
			<polygon id="XMLID_325_" class="st6" points="1821.6,1353.2 1805.8,1353.5 1805.7,1319.4 1821.5,1319 			"/>
			<polygon id="XMLID_324_" class="st6" points="1854.6,1352.5 1827.3,1353.1 1827.1,1318.9 1854.5,1318.3 			"/>
			<polygon id="XMLID_323_" class="st6" points="1860.1,1318.2 1875.9,1317.8 1876,1352 1860.3,1352.3 			"/>
		</g>
	</g>
	<pattern  id="XMLID_5_" xlink:href="#New_Pattern_3" patternTransform="matrix(1.2826 0 0 1.7571 2052.7646 4545.9404)">
	</pattern>
	<rect id="XMLID_97_" x="0" y="0" class="st11" width="1854.6" height="1472.5"/>
</g>
</svg>
