<?xml version="1.0" encoding="utf-8"?>
<!-- Generator: Adobe Illustrator 19.0.0, SVG Export Plug-In . SVG Version: 6.00 Build 0)  -->
<svg version="1.1" xmlns="http://www.w3.org/2000/svg" xmlns:xlink="http://www.w3.org/1999/xlink" x="0px" y="0px"
	 viewBox="0 0 2487.4 1725.5" style="enable-background:new 0 0 2487.4 1725.5;" xml:space="preserve">
<style type="text/css">
	.st0{fill:none;}
	.st1{fill:#42683C;}
	.st2{fill:url(#XMLID_30_);}
	.st3{clip-path:url(#XMLID_31_);}
	.st4{fill:#507134;}
	.st5{fill:#648C1A;}
	.st6{fill:none;stroke:#62C8D6;stroke-miterlimit:10;}
	.st7{fill:#38563C;}
	.st8{fill:#82BC00;}
	.st9{fill:#D4EB8D;}
	.st10{fill:none;stroke:#38563C;stroke-miterlimit:10;}
	.st11{opacity:0.1;fill:url(#XMLID_32_);}
</style>
<pattern  x="695" y="801.9" width="8" height="8" patternUnits="userSpaceOnUse" id="New_Pattern_3" viewBox="0 -8 8 8" style="overflow:visible;">
	<g>
		<polygon class="st0" points="0,-8 8,-8 8,0 0,0 		"/>
		<g>
			<path id="XMLID_2607_" class="st1" d="M1-1c0-0.5-0.4-1-1-1v2C0.5,0,1-0.4,1-1z"/>
			<path id="XMLID_2606_" class="st1" d="M5-2C4.4-2,4-1.5,4-1s0.4,1,1,1h3v-2H5z"/>
		</g>
		<g>
			<path id="XMLID_2605_" class="st1" d="M4-4H1C0.4-4,0-3.5,0-3s0.4,1,1,1h3c0.5,0,1-0.4,1-1S4.5-4,4-4z"/>
			<path id="XMLID_2604_" class="st1" d="M1-5c0-0.5-0.4-1-1-1v2C0.5-4,1-4.4,1-5z"/>
			<path id="XMLID_2600_" class="st1" d="M5-6C4.4-6,4-5.5,4-5s0.4,1,1,1h3v-2H5z"/>
		</g>
		<g>
			<path id="XMLID_2599_" class="st1" d="M4-8H1C0.4-8,0-7.5,0-7s0.4,1,1,1h3c0.5,0,1-0.4,1-1S4.5-8,4-8z"/>
		</g>
	</g>
</pattern>
<g id="Layer_2_copy">
	<linearGradient id="XMLID_30_" gradientUnits="userSpaceOnUse" x1="1243.6868" y1="1725.4521" x2="1243.6868" y2="3.013895e-06">
		<stop  offset="0" style="stop-color:#78AC42"/>
		<stop  offset="1" style="stop-color:#59803A"/>
	</linearGradient>
	<rect id="XMLID_6_" x="0" y="0" class="st2" width="2487.4" height="1725.5"/>
</g>
<g id="Layer_2">
	<g id="XMLID_121_">
		<defs>
			<rect id="XMLID_122_" x="515.4" y="0" width="1972" height="1725.5"/>
		</defs>
		<clipPath id="XMLID_31_">
			<use xlink:href="#XMLID_122_"  style="overflow:visible;"/>
		</clipPath>
		<g id="XMLID_123_" class="st3">
			<path id="XMLID_641_" class="st4" d="M1480,942l5-172.7c0.1-10,32.1-7,32,0l-0.3,166L1480,942z"/>
			<path id="XMLID_640_" class="st5" d="M2145.4,674l-1.2-27.8c-3.8-5.8-30.8-6.5-35,1l0.9,26.8H2145.4z"/>
			<path id="XMLID_639_" class="st5" d="M2152.4,663.3c0.3,5.5-10.6,10.5-24.3,11.1c-13.7,0.6-25.1-3.4-25.3-9
				c-0.3-5.5,10.6-10.5,24.3-11.1C2140.7,653.7,2152.1,657.7,2152.4,663.3z"/>
			<polygon id="XMLID_638_" class="st5" points="2102.7,673.7 2102.7,665.4 2152.4,663.3 2152.4,671.5 			"/>
			<path id="XMLID_637_" class="st6" d="M2111.2,671c4.2-7.5,31.2-6.8,35-1"/>
			<path id="XMLID_636_" class="st7" d="M2152.4,671.5c0.3,5.5-10.6,10.5-24.3,11.1c-13.7,0.6-25.1-3.4-25.3-9
				c-0.3-5.5,10.6-10.5,24.3-11.1C2140.7,662,2152.1,666,2152.4,671.5z"/>
			<path id="XMLID_635_" class="st5" d="M2126.7,1166.6l-16.5-493.5c4.2-7.5,31.2-6.8,35-1l21.5,487.5L2126.7,1166.6z"/>
			<polygon id="XMLID_634_" class="st8" points="768,1468.5 769.3,1451 548.4,1517.3 526.4,1783.4 515.4,1914.3 580.5,1916.4 
				732.4,1935.3 892.4,1631.3 			"/>
			<polygon id="XMLID_633_" class="st7" points="728.4,1934.3 760.9,1493.3 552,1546.2 521.4,1915.3 			"/>
			<path id="XMLID_632_" class="st7" d="M879.7,1497l-3.7-0.1c0,0,0.5-27.6,0.5-28.4s3.8-0.9,3.7,0.1
				C880.2,1469.5,879.7,1497,879.7,1497z"/>
			<path id="XMLID_631_" class="st7" d="M953.8,1508.2l-3.7-0.1c0,0,0.5-27.6,0.5-28.4c0-0.9,3.8-0.9,3.7,0.1
				C954.3,1480.8,953.8,1508.2,953.8,1508.2z"/>
			<path id="XMLID_630_" class="st7" d="M1027.9,1519.5l-3.7-0.1c0,0,0.5-27.6,0.5-28.4c0-0.9,3.8-0.9,3.7,0.1
				C1028.4,1492,1027.9,1519.5,1027.9,1519.5z"/>
			<path id="XMLID_629_" class="st7" d="M1102,1530.7l-3.7-0.1c0,0,0.5-27.6,0.5-28.4c0-0.9,3.8-0.9,3.7,0.1
				C1102.5,1503.3,1102,1530.7,1102,1530.7z"/>
			<path id="XMLID_628_" class="st7" d="M1176,1542l-3.7-0.1c0,0,0.5-27.6,0.5-28.4s3.8-0.9,3.7,0.1S1176,1542,1176,1542z"/>
			<path id="XMLID_627_" class="st7" d="M1250.1,1553.2l-3.7-0.1c0,0,0.5-27.6,0.5-28.4c0-0.9,3.8-0.9,3.7,0.1
				C1250.6,1525.8,1250.1,1553.2,1250.1,1553.2z"/>
			<polygon id="XMLID_626_" class="st5" points="1321.3,1543.9 768,1468.5 733.4,1935.3 1454.5,1831.5 			"/>
			<polygon id="XMLID_625_" class="st5" points="800,1499 805.8,1473.6 807,1457.8 769.3,1451 768,1468.5 773.7,1507.3 			"/>
			<polygon id="XMLID_624_" class="st5" points="2328.4,1093.3 2562,1190.5 2579.7,1424 2317,1446.6 2246.4,1183.3 			"/>
			<polygon id="XMLID_623_" class="st8" points="2060.3,1147.9 2328.4,1093.3 2339.7,1284.6 2060.3,1323.3 2041.7,1181.3 			"/>
			<polygon id="XMLID_622_" class="st8" points="1319,996.6 1301.7,1420 1591.7,1382 1599.7,898 			"/>
			<polygon id="XMLID_621_" class="st5" points="1599.7,898 2058.4,1067.3 2065.6,1322.3 1735.7,1420 1591.7,1382 			"/>
			<polygon id="XMLID_620_" class="st7" points="2537.8,1384.4 2533.7,1383.3 2536.9,1427.7 2540.8,1427.3 			"/>
			<polygon id="XMLID_619_" class="st7" points="2568,1425 2572,1424.6 2569.7,1392.8 2565.7,1391.7 			"/>
			<polygon id="XMLID_618_" class="st7" points="2561.8,1390.7 2557.7,1389.6 2560.2,1425.6 2564.2,1425.3 			"/>
			<polygon id="XMLID_617_" class="st7" points="2575.8,1424.3 2579.7,1424 2577.5,1394.8 2573.6,1393.8 			"/>
			<polygon id="XMLID_616_" class="st7" points="2553.8,1388.6 2549.7,1387.5 2552.4,1426.3 2556.4,1426 			"/>
			<polygon id="XMLID_615_" class="st7" points="2545.8,1386.5 2541.7,1385.4 2544.7,1427 2548.6,1426.6 			"/>
			<polygon id="XMLID_614_" class="st7" points="2489.9,1427.8 2486,1427.8 2482,1371.1 2485.9,1371.1 			"/>
			<polygon id="XMLID_613_" class="st7" points="2482,1427.8 2478.2,1427.8 2474.2,1371.1 2478,1371.1 			"/>
			<polygon id="XMLID_612_" class="st7" points="2517.1,1424.1 2513.9,1378.1 2509.8,1377 2513.1,1424.4 			"/>
			<polygon id="XMLID_611_" class="st7" points="2532.7,1422.9 2529.8,1382.3 2525.8,1381.2 2528.7,1423.2 			"/>
			<polygon id="XMLID_610_" class="st7" points="2524.9,1423.5 2521.9,1380.2 2517.8,1379.1 2520.9,1423.8 			"/>
			<path id="XMLID_609_" class="st7" d="M2471,1427.8l22.7-1.8l-3.8-54.2l-21.7-5.7l-4,67.8l6.9-0.6
				C2471.1,1430.1,2471,1427.8,2471,1427.8z"/>
			<polygon id="XMLID_608_" class="st7" points="2509.3,1424.7 2505.9,1376 2501.8,1375 2505.3,1425.1 			"/>
			<polygon id="XMLID_607_" class="st7" points="2501.5,1425.4 2497.9,1373.9 2493.8,1372.9 2497.6,1425.7 			"/>
			<polygon id="XMLID_606_" class="st7" points="1599.7,910.6 1318.4,1007.3 1318.4,1004 1599.7,906.6 			"/>
			<polygon id="XMLID_605_" class="st7" points="1599.7,906.6 2058.5,1073.3 2058.5,1077.3 1599.7,910.6 			"/>
			<polygon id="XMLID_604_" class="st5" points="1581.2,1172.1 1595.6,1168.6 1591.7,1382 1576.7,1386.3 			"/>
			<polygon id="XMLID_603_" class="st5" points="1556.2,1178.1 1570.3,1174.7 1565.7,1387.7 1551.3,1389.6 			"/>
			<polygon id="XMLID_602_" class="st5" points="1531.6,1184 1545.5,1180.7 1540.5,1391.1 1526.4,1393 			"/>
			<polygon id="XMLID_601_" class="st5" points="1507.5,1189.7 1521.1,1186.5 1515.8,1394.4 1502,1396.2 			"/>
			<polygon id="XMLID_600_" class="st5" points="1483.9,1195.4 1497.2,1192.2 1491.6,1397.6 1478,1399.4 			"/>
			<polygon id="XMLID_599_" class="st5" points="1460.7,1201 1473.8,1197.8 1467.8,1400.8 1454.5,1402.6 			"/>
			<polygon id="XMLID_598_" class="st5" points="1437.9,1206.4 1450.8,1203.3 1444.5,1403.9 1431.5,1405.6 			"/>
			<polygon id="XMLID_597_" class="st5" points="1415.6,1211.8 1428.2,1208.8 1421.6,1407 1408.8,1408.7 			"/>
			<polygon id="XMLID_596_" class="st5" points="1393.7,1217 1406,1214.1 1399.2,1410 1386.6,1411.6 			"/>
			<polygon id="XMLID_595_" class="st5" points="1372.1,1222.2 1384.3,1219.3 1377.1,1412.9 1364.8,1414.5 			"/>
			<polygon id="XMLID_594_" class="st5" points="1351,1227.3 1362.9,1224.4 1355.5,1415.8 1343.4,1417.4 			"/>
			<polygon id="XMLID_593_" class="st5" points="1330.2,1232.2 1341.9,1229.4 1334.2,1418.6 1322.4,1420.2 			"/>
			<polygon id="XMLID_592_" class="st5" points="1309.3,1237.1 1320.8,1234.4 1312.9,1421.4 1301.2,1423 			"/>
			<polygon id="XMLID_591_" class="st7" points="1637.9,1390.9 1623.4,1389.5 1622.9,1175.7 1637.1,1179.2 			"/>
			<polygon id="XMLID_590_" class="st7" points="1668,1394 1654.1,1392.6 1653.1,1183.1 1666.8,1186.5 			"/>
			<polygon id="XMLID_589_" class="st7" points="1696.9,1396.9 1683.6,1395.5 1682.1,1190.2 1695.2,1193.5 			"/>
			<polygon id="XMLID_588_" class="st7" points="1724.7,1399.7 1711.8,1398.4 1709.9,1197.1 1722.6,1200.2 			"/>
			<polygon id="XMLID_587_" class="st7" points="1751.3,1402.4 1739,1401.1 1736.7,1203.7 1748.9,1206.7 			"/>
			<polygon id="XMLID_586_" class="st7" points="1777,1404.9 1765.1,1403.8 1762.5,1210 1774.2,1212.9 			"/>
			<polygon id="XMLID_585_" class="st7" points="1801.7,1407.4 1790.2,1406.3 1787.3,1216.1 1798.5,1218.9 			"/>
			<polygon id="XMLID_583_" class="st7" points="1825.4,1409.8 1814.4,1408.7 1811.2,1222 1822,1224.6 			"/>
			<polygon id="XMLID_578_" class="st7" points="1848.4,1412.1 1837.8,1411.1 1834.2,1227.6 1844.7,1230.2 			"/>
			<polygon id="XMLID_577_" class="st7" points="1870.5,1414.4 1860.2,1413.3 1856.4,1233.1 1866.5,1235.6 			"/>
			<polygon id="XMLID_576_" class="st7" points="1891.8,1416.5 1881.9,1415.5 1877.9,1238.4 1887.6,1240.8 			"/>
			<polygon id="XMLID_575_" class="st7" points="1912.4,1418.6 1902.9,1417.6 1898.6,1243.5 1908,1245.8 			"/>
			<polygon id="XMLID_574_" class="st7" points="1932.3,1420.6 1923.1,1419.7 1918.6,1248.4 1927.7,1250.6 			"/>
			<polygon id="XMLID_573_" class="st7" points="1951.6,1422.5 1942.7,1421.6 1938,1253.2 1946.8,1255.3 			"/>
			<polygon id="XMLID_572_" class="st7" points="1970.2,1424.4 1961.6,1423.5 1956.7,1257.8 1965.3,1259.9 			"/>
			<polygon id="XMLID_546_" class="st7" points="1988.2,1426.2 1979.9,1425.4 1974.9,1262.2 1983.2,1264.3 			"/>
			<polygon id="XMLID_545_" class="st7" points="2005.7,1428 1997.6,1427.2 1992.5,1266.6 2000.5,1268.5 			"/>
			<polygon id="XMLID_544_" class="st7" points="2022.6,1429.7 2014.8,1428.9 2009.5,1270.7 2017.3,1272.7 			"/>
			<polygon id="XMLID_509_" class="st7" points="2039,1431.3 2031.4,1430.6 2026,1274.8 2033.5,1276.7 			"/>
			<polygon id="XMLID_498_" class="st7" points="2054.9,1432.9 2047.5,1432.2 2042,1278.7 2049.3,1280.5 			"/>
			<polygon id="XMLID_384_" class="st7" points="2070.3,1434.5 2063.2,1433.8 2057.6,1282.6 2064.7,1284.3 			"/>
			<polygon id="XMLID_382_" class="st7" points="1606.2,1171.6 1595.2,1168.9 1591.7,1382 1606.5,1385.9 			"/>
			<polygon id="XMLID_381_" class="st7" points="1854.4,1323.3 1889,1271.3 2049.7,1308 2057.7,1448 1825,1394 			"/>
			<polygon id="XMLID_380_" class="st8" points="1716.2,1365.6 1716.2,1298.6 1889,1271.3 1889,1348.6 			"/>
			<polygon id="XMLID_379_" class="st8" points="1301.2,1420 2350.6,1282.5 2354,1294.3 2362.3,1450.3 2447.4,1732.3 1294.4,1673.3 
							"/>
			<polygon id="XMLID_378_" class="st5" points="1721.1,1570.5 2366.5,1543.5 2368.2,1574.3 1721.3,1595.1 			"/>
			<polygon id="XMLID_377_" class="st5" points="1583.5,1403.3 2352.1,1310.3 2353.7,1340 1583.3,1426 			"/>
			<polygon id="XMLID_376_" class="st5" points="1583.1,1460.1 2358,1386.6 2359.6,1416.6 1582.9,1483 			"/>
			<polygon id="XMLID_375_" class="st5" points="1582.6,1517.4 2362.2,1464.1 2363.8,1494.4 1582.4,1540.5 			"/>
			<polygon id="XMLID_374_" class="st7" points="1723,1571.4 2366.6,1544.5 2366.5,1543.5 1721.1,1570.5 1721.3,1595.1 1723.2,1595 
							"/>
			<polygon id="XMLID_373_" class="st7" points="1585.5,1404.2 2352.2,1311.4 2352.1,1310.3 1583.5,1403.3 1583.3,1426 
				1585.3,1425.8 			"/>
			<polygon id="XMLID_372_" class="st7" points="1585,1461 2356.3,1387.8 2356.2,1386.6 1583.1,1460.1 1582.9,1483 1584.8,1482.8 
							"/>
			<polygon id="XMLID_371_" class="st7" points="1584.5,1518.3 2362.3,1465.1 2362.2,1464.1 1582.6,1517.4 1582.4,1540.5 
				1584.4,1540.4 			"/>
			<polygon id="XMLID_370_" class="st9" points="2311,1341.6 2293.2,1343.7 2292.1,1322.6 2309.9,1320.5 			"/>
			<polygon id="XMLID_369_" class="st9" points="1605.6,1421.1 1595.5,1422.2 1595.6,1406.3 1605.7,1405 			"/>
			<polygon id="XMLID_368_" class="st9" points="1624.1,1419 1613.8,1420.2 1613.9,1404.1 1624.2,1402.8 			"/>
			<polygon id="XMLID_367_" class="st9" points="1642.9,1416.9 1632.4,1418.1 1632.5,1401.8 1642.9,1400.6 			"/>
			<polygon id="XMLID_366_" class="st9" points="1662,1414.8 1651.3,1416 1651.4,1399.6 1662,1398.3 			"/>
			<polygon id="XMLID_365_" class="st9" points="1681.5,1412.6 1670.6,1413.8 1670.6,1397.2 1681.5,1395.9 			"/>
			<polygon id="XMLID_364_" class="st9" points="1701.3,1410.3 1690.2,1411.6 1690.2,1394.9 1701.2,1393.6 			"/>
			<polygon id="XMLID_363_" class="st9" points="1721.4,1408.1 1710.2,1409.3 1710.2,1392.5 1721.4,1391.2 			"/>
			<polygon id="XMLID_362_" class="st9" points="1741.9,1405.7 1730.5,1407 1730.5,1390.1 1741.9,1388.7 			"/>
			<polygon id="XMLID_361_" class="st9" points="1762.9,1403.4 1751.2,1404.7 1751.1,1387.6 1762.7,1386.2 			"/>
			<polygon id="XMLID_360_" class="st9" points="1784.1,1401 1772.3,1402.3 1772.2,1385.1 1784,1383.6 			"/>
			<polygon id="XMLID_359_" class="st9" points="1805.8,1398.6 1793.7,1399.9 1793.6,1382.5 1805.7,1381 			"/>
			<polygon id="XMLID_358_" class="st9" points="1827.9,1396.1 1815.6,1397.4 1815.4,1379.9 1827.7,1378.4 			"/>
			<polygon id="XMLID_357_" class="st9" points="1850.4,1393.5 1837.9,1394.9 1837.7,1377.2 1850.2,1375.7 			"/>
			<polygon id="XMLID_356_" class="st9" points="1873.4,1390.9 1860.6,1392.4 1860.3,1374.5 1873.1,1372.9 			"/>
			<polygon id="XMLID_355_" class="st9" points="1896.7,1388.3 1883.7,1389.8 1883.4,1371.7 1896.4,1370.1 			"/>
			<polygon id="XMLID_354_" class="st9" points="1920.6,1385.6 1907.3,1387.1 1907,1368.9 1920.2,1367.3 			"/>
			<polygon id="XMLID_353_" class="st9" points="1944.9,1382.9 1931.4,1384.4 1931,1366 1944.5,1364.4 			"/>
			<polygon id="XMLID_352_" class="st9" points="1969.7,1380.1 1955.9,1381.6 1955.5,1363 1969.3,1361.4 			"/>
			<polygon id="XMLID_350_" class="st9" points="1995,1377.2 1980.9,1378.8 1980.5,1360 1994.5,1358.3 			"/>
			<polygon id="XMLID_349_" class="st9" points="2020.8,1374.3 2006.4,1376 2005.9,1357 2020.3,1355.3 			"/>
			<polygon id="XMLID_348_" class="st9" points="2047.1,1371.4 2032.5,1373 2031.9,1353.9 2046.6,1352.1 			"/>
			<polygon id="XMLID_347_" class="st9" points="2074,1368.3 2059,1370 2058.5,1350.7 2073.4,1348.9 			"/>
			<polygon id="XMLID_346_" class="st9" points="2101.5,1365.2 2086.2,1367 2085.5,1347.4 2100.8,1345.6 			"/>
			<polygon id="XMLID_345_" class="st9" points="2129.5,1362.1 2113.9,1363.8 2113.2,1344.1 2128.8,1342.2 			"/>
			<polygon id="XMLID_344_" class="st9" points="2158.1,1358.9 2142.2,1360.7 2141.4,1340.7 2157.4,1338.8 			"/>
			<polygon id="XMLID_343_" class="st9" points="2187.4,1355.6 2171.1,1357.4 2170.3,1337.2 2186.6,1335.3 			"/>
			<polygon id="XMLID_342_" class="st9" points="2217.3,1352.2 2200.6,1354.1 2199.8,1333.7 2216.4,1331.7 			"/>
			<polygon id="XMLID_341_" class="st9" points="2247.8,1348.8 2230.8,1350.7 2229.9,1330.1 2246.9,1328 			"/>
			<polygon id="XMLID_340_" class="st9" points="2279,1345.2 2261.6,1347.2 2260.7,1326.4 2278,1324.3 			"/>
			<polygon id="XMLID_339_" class="st9" points="2314.8,1417.3 2296.8,1418.9 2295.8,1397.6 2313.7,1395.9 			"/>
			<polygon id="XMLID_338_" class="st9" points="1605.2,1478.6 1595.1,1479.5 1595.2,1463.4 1605.3,1462.4 			"/>
			<polygon id="XMLID_337_" class="st9" points="1623.8,1477 1613.4,1477.9 1613.5,1461.7 1623.9,1460.7 			"/>
			<polygon id="XMLID_336_" class="st9" points="1642.7,1475.4 1632.1,1476.3 1632.2,1459.9 1642.7,1458.9 			"/>
			<polygon id="XMLID_335_" class="st9" points="1661.9,1473.7 1651.2,1474.7 1651.2,1458.1 1661.9,1457.1 			"/>
			<polygon id="XMLID_334_" class="st9" points="1681.4,1472.1 1670.5,1473 1670.6,1456.3 1681.4,1455.3 			"/>
			<polygon id="XMLID_333_" class="st9" points="1701.3,1470.3 1690.2,1471.3 1690.2,1454.5 1701.3,1453.4 			"/>
			<polygon id="XMLID_332_" class="st9" points="1721.6,1468.6 1710.3,1469.6 1710.3,1452.6 1721.5,1451.5 			"/>
			<polygon id="XMLID_331_" class="st9" points="1742.2,1466.8 1730.7,1467.8 1730.7,1450.7 1742.1,1449.6 			"/>
			<polygon id="XMLID_330_" class="st9" points="1763.2,1465 1751.5,1466 1751.4,1448.7 1763.1,1447.6 			"/>
			<polygon id="XMLID_329_" class="st9" points="1784.6,1463.1 1772.7,1464.2 1772.6,1446.7 1784.5,1445.6 			"/>
			<polygon id="XMLID_328_" class="st9" points="1806.4,1461.3 1794.3,1462.3 1794.1,1444.7 1806.3,1443.6 			"/>
			<polygon id="XMLID_327_" class="st9" points="1828.6,1459.3 1816.3,1460.4 1816.1,1442.6 1828.4,1441.5 			"/>
			<polygon id="XMLID_326_" class="st9" points="1851.3,1457.4 1838.7,1458.5 1838.4,1440.5 1851,1439.4 			"/>
			<polygon id="XMLID_325_" class="st9" points="1874.3,1455.4 1861.5,1456.5 1861.2,1438.4 1874.1,1437.2 			"/>
			<polygon id="XMLID_324_" class="st9" points="1897.8,1453.4 1884.7,1454.5 1884.5,1436.2 1897.5,1435 			"/>
			<polygon id="XMLID_323_" class="st9" points="1921.8,1451.3 1908.5,1452.4 1908.1,1434 1921.5,1432.7 			"/>
			<polygon id="XMLID_322_" class="st9" points="1946.3,1449.2 1932.7,1450.3 1932.3,1431.7 1945.9,1430.4 			"/>
			<polygon id="XMLID_321_" class="st9" points="1971.2,1447 1957.3,1448.2 1956.9,1429.4 1970.8,1428.1 			"/>
			<polygon id="XMLID_320_" class="st9" points="1996.7,1444.8 1982.5,1446 1982,1427 1996.2,1425.7 			"/>
			<polygon id="XMLID_318_" class="st9" points="2022.6,1442.6 2008.2,1443.8 2007.7,1424.6 2022.1,1423.3 			"/>
			<polygon id="XMLID_317_" class="st9" points="2049.1,1440.3 2034.4,1441.6 2033.8,1422.2 2048.6,1420.8 			"/>
			<polygon id="XMLID_316_" class="st9" points="2076.2,1437.9 2061.1,1439.2 2060.5,1419.7 2075.6,1418.3 			"/>
			<polygon id="XMLID_315_" class="st9" points="2103.8,1435.6 2088.4,1436.9 2087.8,1417.1 2103.2,1415.7 			"/>
			<polygon id="XMLID_314_" class="st9" points="2132,1433.1 2116.3,1434.5 2115.6,1414.5 2131.3,1413 			"/>
			<polygon id="XMLID_313_" class="st9" points="2160.8,1430.6 2144.8,1432 2144,1411.8 2160.1,1410.3 			"/>
			<polygon id="XMLID_312_" class="st9" points="2190.3,1428.1 2173.9,1429.5 2173.1,1409.1 2189.5,1407.6 			"/>
			<polygon id="XMLID_311_" class="st9" points="2220.4,1425.5 2203.6,1426.9 2202.8,1406.3 2219.5,1404.7 			"/>
			<polygon id="XMLID_310_" class="st9" points="2251.2,1422.8 2234,1424.3 2233.1,1403.5 2250.2,1401.9 			"/>
			<polygon id="XMLID_309_" class="st9" points="2282.6,1420.1 2265.1,1421.6 2264.1,1400.5 2281.6,1398.9 			"/>
			<polygon id="XMLID_308_" class="st9" points="2318.7,1493.9 2300.6,1495 2299.5,1473.5 2317.6,1472.2 			"/>
			<polygon id="XMLID_307_" class="st9" points="1604.8,1536.7 1594.6,1537.3 1594.8,1521 1605,1520.4 			"/>
			<polygon id="XMLID_306_" class="st9" points="1623.5,1535.6 1613.1,1536.2 1613.2,1519.8 1623.6,1519.1 			"/>
			<polygon id="XMLID_305_" class="st9" points="1642.5,1534.5 1631.9,1535.1 1632,1518.5 1642.5,1517.8 			"/>
			<polygon id="XMLID_304_" class="st9" points="1661.8,1533.3 1651,1533.9 1651.1,1517.2 1661.8,1516.5 			"/>
			<polygon id="XMLID_303_" class="st9" points="1681.4,1532.1 1670.5,1532.8 1670.5,1515.9 1681.4,1515.2 			"/>
			<polygon id="XMLID_302_" class="st9" points="1701.4,1530.9 1690.3,1531.6 1690.3,1514.6 1701.4,1513.8 			"/>
			<polygon id="XMLID_301_" class="st9" points="1721.8,1529.7 1710.4,1530.4 1710.4,1513.2 1721.7,1512.5 			"/>
			<polygon id="XMLID_300_" class="st9" points="1742.5,1528.5 1730.9,1529.2 1730.9,1511.9 1742.4,1511.1 			"/>
			<polygon id="XMLID_299_" class="st9" points="1763.6,1527.2 1751.8,1527.9 1751.8,1510.4 1763.5,1509.6 			"/>
			<polygon id="XMLID_298_" class="st9" points="1785.1,1525.9 1773.1,1526.6 1773,1509 1785,1508.2 			"/>
			<polygon id="XMLID_297_" class="st9" points="1807,1524.6 1794.8,1525.3 1794.7,1507.5 1806.9,1506.7 			"/>
			<polygon id="XMLID_296_" class="st9" points="1829.4,1523.3 1816.9,1524 1816.7,1506.1 1829.2,1505.2 			"/>
			<polygon id="XMLID_295_" class="st9" points="1852.1,1521.9 1839.4,1522.7 1839.2,1504.5 1851.9,1503.7 			"/>
			<polygon id="XMLID_294_" class="st9" points="1875.3,1520.5 1862.4,1521.3 1862.1,1503 1875,1502.1 			"/>
			<polygon id="XMLID_293_" class="st9" points="1899,1519.1 1885.8,1519.9 1885.5,1501.4 1898.6,1500.5 			"/>
			<polygon id="XMLID_292_" class="st9" points="1923.1,1517.6 1909.6,1518.5 1909.3,1499.8 1922.7,1498.9 			"/>
			<polygon id="XMLID_291_" class="st9" points="1947.7,1516.2 1934,1517 1933.6,1498.2 1947.3,1497.2 			"/>
			<polygon id="XMLID_290_" class="st9" points="1972.8,1514.7 1958.8,1515.5 1958.4,1496.5 1972.3,1495.6 			"/>
			<polygon id="XMLID_289_" class="st9" points="1998.4,1513.1 1984.1,1514 1983.6,1494.8 1997.9,1493.8 			"/>
			<polygon id="XMLID_288_" class="st9" points="2024.5,1511.6 2009.9,1512.4 2009.4,1493 2024,1492.1 			"/>
			<polygon id="XMLID_285_" class="st9" points="2051.2,1510 2036.3,1510.9 2035.8,1491.3 2050.6,1490.3 			"/>
			<polygon id="XMLID_277_" class="st9" points="2078.4,1508.3 2063.2,1509.3 2062.6,1489.5 2077.8,1488.4 			"/>
			<polygon id="XMLID_276_" class="st9" points="2106.2,1506.7 2090.7,1507.6 2090.1,1487.6 2105.5,1486.6 			"/>
			<polygon id="XMLID_275_" class="st9" points="2134.6,1505 2118.8,1505.9 2118.1,1485.7 2133.9,1484.6 			"/>
			<polygon id="XMLID_274_" class="st9" points="2163.6,1503.2 2147.4,1504.2 2146.7,1483.8 2162.8,1482.7 			"/>
			<polygon id="XMLID_273_" class="st9" points="2193.3,1501.5 2176.7,1502.4 2175.9,1481.8 2192.4,1480.7 			"/>
			<polygon id="XMLID_272_" class="st9" points="2223.6,1499.6 2206.7,1500.7 2205.8,1479.8 2222.7,1478.7 			"/>
			<polygon id="XMLID_271_" class="st9" points="2254.6,1497.8 2237.3,1498.8 2236.4,1477.7 2253.6,1476.6 			"/>
			<polygon id="XMLID_270_" class="st9" points="2286.2,1495.9 2268.6,1496.9 2267.6,1475.6 2285.2,1474.4 			"/>
			<polygon id="XMLID_269_" class="st9" points="2322.7,1572.6 2304.4,1573.2 2303.4,1551.3 2321.5,1550.6 			"/>
			<polygon id="XMLID_268_" class="st9" points="1742.8,1591.8 1731.2,1592.2 1731.1,1574.7 1742.7,1574.2 			"/>
			<polygon id="XMLID_267_" class="st9" points="1764,1591.1 1752.2,1591.5 1752.1,1573.8 1763.9,1573.3 			"/>
			<polygon id="XMLID_266_" class="st9" points="1785.6,1590.4 1773.6,1590.8 1773.5,1573 1785.5,1572.5 			"/>
			<polygon id="XMLID_265_" class="st9" points="1807.7,1589.6 1795.4,1590 1795.2,1572.1 1807.5,1571.6 			"/>
			<polygon id="XMLID_264_" class="st9" points="1830.1,1588.9 1817.6,1589.3 1817.4,1571.2 1829.9,1570.6 			"/>
			<polygon id="XMLID_263_" class="st9" points="1853,1588.1 1840.2,1588.5 1840,1570.2 1852.8,1569.7 			"/>
			<polygon id="XMLID_262_" class="st9" points="1876.3,1587.4 1863.3,1587.8 1863.1,1569.3 1876,1568.8 			"/>
			<polygon id="XMLID_261_" class="st9" points="1900.1,1586.6 1886.9,1587 1886.6,1568.3 1899.8,1567.8 			"/>
			<polygon id="XMLID_260_" class="st9" points="1924.4,1585.8 1910.9,1586.2 1910.5,1567.4 1924,1566.8 			"/>
			<polygon id="XMLID_259_" class="st9" points="1949.1,1584.9 1935.3,1585.4 1935,1566.4 1948.7,1565.8 			"/>
			<polygon id="XMLID_258_" class="st9" points="1974.4,1584.1 1960.3,1584.6 1959.9,1565.3 1973.9,1564.8 			"/>
			<polygon id="XMLID_257_" class="st9" points="2000.1,1583.2 1985.8,1583.7 1985.3,1564.3 1999.6,1563.7 			"/>
			<polygon id="XMLID_256_" class="st9" points="2026.4,1582.4 2011.8,1582.9 2011.3,1563.2 2025.9,1562.6 			"/>
			<polygon id="XMLID_227_" class="st9" points="2053.3,1581.5 2038.3,1582 2037.8,1562.2 2052.7,1561.6 			"/>
			<polygon id="XMLID_226_" class="st9" points="2080.7,1580.6 2065.4,1581.1 2064.8,1561.1 2080,1560.4 			"/>
			<polygon id="XMLID_225_" class="st9" points="2108.7,1579.6 2093.1,1580.2 2092.4,1559.9 2108,1559.3 			"/>
			<polygon id="XMLID_224_" class="st9" points="2137.3,1578.7 2121.3,1579.2 2120.6,1558.8 2136.5,1558.1 			"/>
			<polygon id="XMLID_223_" class="st9" points="2166.5,1577.7 2150.2,1578.3 2149.4,1557.6 2165.7,1556.9 			"/>
			<polygon id="XMLID_222_" class="st9" points="2196.3,1576.7 2179.7,1577.3 2178.9,1556.4 2195.5,1555.7 			"/>
			<polygon id="XMLID_221_" class="st9" points="2226.9,1575.7 2209.8,1576.3 2209,1555.2 2226,1554.5 			"/>
			<polygon id="XMLID_220_" class="st9" points="2258.1,1574.7 2240.7,1575.3 2239.7,1553.9 2257.1,1553.2 			"/>
			<polygon id="XMLID_219_" class="st9" points="2290,1573.6 2272.2,1574.2 2271.2,1552.6 2289,1551.9 			"/>
			<polygon id="XMLID_218_" class="st5" points="2350.6,1282.5 2360.4,1460.6 2491.4,1423.3 2490.6,1421.2 2492.2,1420 
				2488.9,1375.8 2487.4,1375.3 2485.8,1346.6 2487.1,1347 2485.4,1324.3 			"/>
			<polygon id="XMLID_217_" class="st7" points="2493.3,1446.6 2358,1416.8 2356.2,1386.6 2491.6,1420.5 			"/>
			<polygon id="XMLID_216_" class="st7" points="2487.4,1375.3 2353.7,1340 2352.1,1310.3 2485.8,1346.6 			"/>
			<polygon id="XMLID_215_" class="st9" points="2368.2,1340.5 2356,1337.3 2354.6,1316.3 2366.8,1319.6 			"/>
			<polygon id="XMLID_214_" class="st9" points="2387.4,1345.6 2375.3,1342.4 2373.9,1321.6 2386,1324.8 			"/>
			<polygon id="XMLID_213_" class="st9" points="2406.5,1350.7 2394.5,1347.5 2393.1,1326.7 2405.1,1330 			"/>
			<polygon id="XMLID_212_" class="st9" points="2425.4,1355.8 2413.5,1352.6 2412.2,1331.9 2424.1,1335.1 			"/>
			<polygon id="XMLID_211_" class="st9" points="2444.2,1360.8 2432.4,1357.6 2431.1,1337 2442.9,1340.2 			"/>
			<polygon id="XMLID_210_" class="st9" points="2462.9,1365.7 2451.2,1362.6 2449.8,1342 2461.6,1345.2 			"/>
			<polygon id="XMLID_209_" class="st9" points="2481.4,1370.6 2469.8,1367.5 2468.5,1347.1 2480.1,1350.2 			"/>
			<polygon id="XMLID_208_" class="st9" points="2373.9,1417 2360.7,1414 2359.3,1392.7 2372.6,1395.9 			"/>
			<polygon id="XMLID_207_" class="st9" points="2394.4,1421.6 2381.6,1418.7 2380.3,1397.7 2393.1,1400.8 			"/>
			<polygon id="XMLID_206_" class="st9" points="2414.2,1426 2401.8,1423.2 2400.6,1402.6 2412.9,1405.6 			"/>
			<polygon id="XMLID_205_" class="st9" points="2433.2,1430.3 2421.3,1427.6 2420.1,1407.4 2432.1,1410.3 			"/>
			<polygon id="XMLID_204_" class="st9" points="2451.7,1434.4 2440.1,1431.8 2439,1411.9 2450.6,1414.7 			"/>
			<polygon id="XMLID_203_" class="st9" points="2469.5,1438.4 2458.4,1435.9 2457.3,1416.3 2468.5,1419.1 			"/>
			<polygon id="XMLID_202_" class="st9" points="2486.8,1442.3 2476,1439.8 2474.9,1420.6 2485.8,1423.2 			"/>
			<polyline id="XMLID_201_" class="st7" points="2352.2,1311.4 2485.8,1347.2 2485.9,1347.5 2487.1,1347 2352.1,1310.3 
				2352.2,1311.4 			"/>
			<polyline id="XMLID_200_" class="st7" points="2356.2,1386.6 2356.3,1387.8 2491.6,1420.5 2491.6,1420.8 2492.2,1420 			"/>
			<polygon id="XMLID_199_" class="st7" points="1580.4,1578 1622.9,1634.4 1579.2,1634.4 			"/>
			<polygon id="XMLID_198_" class="st7" points="1298.1,1540.7 1347.8,1681 1294.3,1677.5 			"/>
			<polygon id="XMLID_197_" class="st5" points="1258.4,1557.3 1580.4,1578 1578.4,1670.3 1178.4,1662.6 			"/>
			<path id="XMLID_196_" class="st9" d="M1519.8,1422.2c0,0-15.8,10.5-17.8,15.2c-2.1,4.8-1.9,3.8-4.8,6.3c-2.9,2.5-6.8,3.2-8.2,4.7
				c-1.4,1.5,0.8,2.8-1.4,4.2s-5.1,2.7-5.9,6s2.5,2.5,3.3,5.3c0.8,2.8-2.7,2.8-2.7,6.3s3.7,5.3,4,7.5c0.3,2.2-2,4.5-1.2,8.7
				c0.8,4.2-4.2,2.7-5,3.7s1.3,4.3,5.3,4.3s1.7-3.5,5.2-4.3s15.7,6.3,19.7,2.5s9.4-2.5,9.4-2.5V1422.2z"/>
			<path id="XMLID_195_" class="st7" d="M1512.4,1640.3c0,0,7.1-207.2,7.5-220.3c0-1.6,4-1.5,4,0c-0.2,12.3-4.5,220.3-4.5,220.3
				H1512.4z"/>
			<path id="XMLID_194_" class="st9" d="M1432.5,1427.6c-1.7,13.7-18,46.1-20,48c-2,1.9-5.8,5.2-7.2,8.2c-1.3,3-2.2,11.6-3.5,15
				c-1.3,3.4-5.6,0.5-5.3,1.2c1.9,5.1,7.7,0,10.8,1.8c3.2,1.8,5.7-3,8-1.8c2.3,1.1,14.8-1.8,14.8,3.3
				C1430.2,1508.4,1432.5,1427.6,1432.5,1427.6z"/>
			<path id="XMLID_193_" class="st7" d="M1421,1643.3c0,0,10.1-215,10.3-217.2c0.1-1.2,5-1,5,0c0,1.7-9,217.2-9,217.2H1421z"/>
			<polygon id="XMLID_192_" class="st8" points="2668.4,1846.3 2668.4,1408.3 2252.4,1442.3 2258.4,1624.3 1253.4,1640.3 
				1258.4,1557.3 993.4,1571.3 982.7,1770.3 			"/>
			<polygon id="XMLID_190_" class="st7" points="1087.4,1651.8 1081,1774.7 1146.7,1777.7 1153.7,1648 1107,1649.3 			"/>
			<polygon id="XMLID_189_" class="st5" points="1086.1,1676 1136.9,1677 1139.4,1674.8 1140.4,1662.5 1138.4,1660.3 1087.4,1659.8 
				1081,1662.3 1080.4,1667.3 			"/>
			<polygon id="XMLID_188_" class="st7" points="1082,1663.3 1134.1,1663.5 1133.6,1667 1081.4,1666.3 			"/>
			<line id="XMLID_187_" class="st10" x1="2669.9" y1="1478.4" x2="2265.4" y2="1496.5"/>
			<line id="XMLID_186_" class="st10" x1="2669.9" y1="1515.7" x2="2263.4" y2="1531"/>
			<line id="XMLID_185_" class="st10" x1="2669.9" y1="1548.6" x2="2267.4" y2="1561.3"/>
			<line id="XMLID_184_" class="st10" x1="2669.9" y1="1584.5" x2="2267.4" y2="1594.5"/>
			<polyline id="XMLID_183_" class="st10" points="2669.9,1619 2268.4,1626.3 2250,1626.6 			"/>
			<line id="XMLID_182_" class="st10" x1="2669.9" y1="1656.5" x2="1153.7" y2="1673.4"/>
			<line id="XMLID_181_" class="st10" x1="2669.9" y1="1691" x2="1151.8" y2="1698.1"/>
			<line id="XMLID_180_" class="st10" x1="2669.9" y1="1727.1" x2="1151.8" y2="1723.8"/>
			<line id="XMLID_179_" class="st10" x1="2669.9" y1="1760.2" x2="1148.8" y2="1747.4"/>
			<line id="XMLID_178_" class="st10" x1="2669.9" y1="1797.9" x2="1148.6" y2="1774.3"/>
			<polygon id="XMLID_177_" class="st5" points="2335.4,1823.5 2322.7,1475.8 2326.9,1474.4 2340.4,1826.4 			"/>
			<polygon id="XMLID_176_" class="st7" points="2323.6,1554.5 2331.5,1554.5 2334.6,1644.8 2326.9,1644.8 			"/>
			<polygon id="XMLID_175_" class="st7" points="2079.1,1698.3 2069.4,1698.2 2069.4,1684.2 2079.1,1684.3 			"/>
			<polygon id="XMLID_174_" class="st7" points="2188,1699 2178.4,1698.9 2178.4,1684.9 2188,1685 			"/>
			<polygon id="XMLID_173_" class="st7" points="1947.1,1697.4 1937.4,1697.4 1937.4,1683.4 1947.1,1683.4 			"/>
			<polygon id="XMLID_172_" class="st7" points="1664.1,1695.6 1657.1,1695.6 1657.1,1681.6 1664.1,1681.6 			"/>
			<polygon id="XMLID_171_" class="st7" points="1568.5,1695 1561.4,1695 1561.4,1681 1568.5,1681 			"/>
			<polygon id="XMLID_170_" class="st7" points="1500.1,1694.6 1494,1694.5 1494,1680.5 1500.1,1680.6 			"/>
			<polygon id="XMLID_169_" class="st7" points="1416.9,1694 1410.8,1694 1410.8,1680 1416.9,1680 			"/>
			<polygon id="XMLID_168_" class="st7" points="1360.1,1693.7 1355,1693.6 1355,1679.6 1360.1,1679.7 			"/>
			<polygon id="XMLID_167_" class="st7" points="1290,1693.2 1284.8,1693.2 1284.8,1679.2 1290,1679.2 			"/>
			<polygon id="XMLID_166_" class="st7" points="1250.9,1650.5 1255.7,1567.1 1000.7,1580.1 991,1763.3 985.4,1763.3 995.4,1576.3 
				1260.4,1562.3 1255.4,1645.3 			"/>
			<g id="XMLID_164_">
				
					<rect id="XMLID_165_" x="1150.8" y="1650.5" transform="matrix(0.9991 4.198932e-02 -4.198932e-02 0.9991 72.4411 -46.945)" class="st7" width="6" height="101"/>
			</g>
			<g id="XMLID_162_">
				
					<rect id="XMLID_163_" x="1259.7" y="1650.5" transform="matrix(0.9997 2.604131e-02 -2.604131e-02 0.9997 44.7243 -32.3052)" class="st7" width="6" height="100.9"/>
			</g>
			<g id="XMLID_160_">
				
					<rect id="XMLID_161_" x="1385" y="1650.5" transform="matrix(0.9997 2.604131e-02 -2.604131e-02 0.9997 44.7668 -35.5685)" class="st7" width="6" height="100.9"/>
			</g>
			<g id="XMLID_158_">
				
					<rect id="XMLID_159_" x="1528.6" y="1648.5" transform="matrix(0.9998 1.920531e-02 -1.920531e-02 0.9998 33.2523 -29.098)" class="st7" width="6" height="136.5"/>
			</g>
			<g id="XMLID_156_">
				
					<rect id="XMLID_157_" x="1696" y="1648.3" transform="matrix(1 8.788723e-03 -8.788723e-03 1 15.2037 -14.8659)" class="st7" width="6" height="148.4"/>
			</g>
			<g id="XMLID_154_">
				
					<rect id="XMLID_155_" x="1816.9" y="1723.6" transform="matrix(1.254229e-02 0.9999 -0.9999 1.254229e-02 3599.6887 -191.9643)" class="st7" width="160.2" height="6"/>
			</g>
			<g id="XMLID_152_">
				
					<rect id="XMLID_153_" x="2046.6" y="1726" transform="matrix(2.615174e-02 0.9997 -0.9997 2.615174e-02 3803.5664 -446.2834)" class="st7" width="168.6" height="6"/>
			</g>
			<g id="XMLID_150_">
				
					<rect id="XMLID_151_" x="2101.6" y="1653.5" transform="matrix(3.928587e-02 0.9992 -0.9992 3.928587e-02 3842.3362 -683.2825)" class="st7" width="349.8" height="6"/>
			</g>
			<g id="XMLID_148_">
				
					<rect id="XMLID_149_" x="2399.3" y="1640" transform="matrix(6.662863e-02 0.9978 -0.9978 6.662863e-02 4052.1628 -1045.6907)" class="st7" width="371.3" height="6"/>
			</g>
			<polygon id="XMLID_147_" class="st7" points="2671.4,1454.8 2269.6,1485 2275.4,1640.8 1087.4,1656.8 1087.4,1648.6 
				1255.4,1645.3 2260.4,1629.3 2254.4,1447.3 2670.4,1413.3 			"/>
			<polygon id="XMLID_146_" class="st5" points="1258.4,1557.3 1264.2,1557.7 1259.4,1644.3 1251.2,1642.8 			"/>
			<polygon id="XMLID_145_" class="st8" points="1248.9,1645.5 1253.7,1562.1 998.7,1575.1 989,1758.3 983.4,1758.3 993.4,1571.3 
				1258.4,1557.3 1253.4,1640.3 			"/>
			<g id="XMLID_143_">
				
					<rect id="XMLID_144_" x="1148.8" y="1645.5" transform="matrix(0.9991 4.198932e-02 -4.198932e-02 0.9991 72.2294 -46.8655)" class="st5" width="6" height="101"/>
			</g>
			<g id="XMLID_141_">
				
					<rect id="XMLID_142_" x="1257.7" y="1645.5" transform="matrix(0.9997 2.604131e-02 -2.604131e-02 0.9997 44.5934 -32.2548)" class="st5" width="6" height="100.9"/>
			</g>
			<g id="XMLID_139_">
				
					<rect id="XMLID_140_" x="1383" y="1645.5" transform="matrix(0.9997 2.604131e-02 -2.604131e-02 0.9997 44.6359 -35.5181)" class="st5" width="6" height="100.9"/>
			</g>
			<g id="XMLID_137_">
				
					<rect id="XMLID_138_" x="1526.6" y="1643.5" transform="matrix(0.9998 1.920531e-02 -1.920531e-02 0.9998 33.1559 -29.0605)" class="st5" width="6" height="136.5"/>
			</g>
			<g id="XMLID_135_">
				
					<rect id="XMLID_136_" x="1694" y="1643.3" transform="matrix(1 8.788723e-03 -8.788723e-03 1 15.1597 -14.8485)" class="st5" width="6" height="148.4"/>
			</g>
			<g id="XMLID_133_">
				
					<rect id="XMLID_134_" x="1814.9" y="1718.6" transform="matrix(1.254229e-02 0.9999 -0.9999 1.254229e-02 3592.7141 -194.9017)" class="st5" width="160.2" height="6"/>
			</g>
			<g id="XMLID_131_">
				
					<rect id="XMLID_132_" x="2044.6" y="1721" transform="matrix(2.615174e-02 0.9997 -0.9997 2.615174e-02 3796.6204 -449.1533)" class="st5" width="168.6" height="6"/>
			</g>
			<g id="XMLID_129_">
				
					<rect id="XMLID_130_" x="2099.6" y="1648.5" transform="matrix(3.928587e-02 0.9992 -0.9992 3.928587e-02 3835.4185 -686.0876)" class="st5" width="349.8" height="6"/>
			</g>
			<g id="XMLID_127_">
				
					<rect id="XMLID_128_" x="2397.3" y="1635" transform="matrix(6.662863e-02 0.9978 -0.9978 6.662863e-02 4045.3074 -1048.3619)" class="st5" width="371.3" height="6"/>
			</g>
			<polygon id="XMLID_126_" class="st5" points="2669.4,1449.8 2267.6,1480 2273.4,1635.8 1085.4,1651.8 1085.4,1643.6 
				1253.4,1640.3 2258.4,1624.3 2252.4,1442.3 2668.4,1408.3 			"/>
			<polygon id="XMLID_125_" class="st7" points="2060.5,1154 2328.8,1100.1 2329,1104.3 2060.6,1157.6 			"/>
			<polygon id="XMLID_124_" class="st7" points="2328.8,1100.1 2562.5,1196.9 2562.7,1200.8 2329,1104.3 			"/>
		</g>
	</g>
</g>
<g id="Layer_3">
	<pattern  id="XMLID_32_" xlink:href="#New_Pattern_3" patternTransform="matrix(1.7202 0 0 2.059 5701.9062 6792.5171)">
	</pattern>
	<rect id="XMLID_85_" x="0" y="0" class="st11" width="2487.4" height="1725.5"/>
</g>
</svg>
