
<svg width="2672px" height="1936px" viewBox="0 0 2672 1936" version="1.1" xmlns="http://www.w3.org/2000/svg" xmlns:xlink="http://www.w3.org/1999/xlink">
    <!-- Generator: Sketch 46.2 (44496) - http://www.bohemiancoding.com/sketch -->
    <desc>Created with Sketch.</desc>
    <defs>
        <linearGradient x1="49.9994693%" y1="99.997224%" x2="49.9994693%" y2="1.74667922e-07%" id="linearGradient-1">
            <stop stop-color="#78AC42" offset="0%"></stop>
            <stop stop-color="#59803A" offset="100%"></stop>
        </linearGradient>
    </defs>
    <g id="Page-1" stroke="none" stroke-width="1" fill="none" fill-rule="evenodd">
        <g id="oskarshamn_top">
            <g id="Layer_2_copy" fill-rule="nonzero" fill="url(#linearGradient-1)">
                <rect id="XMLID_6_" x="0" y="0" width="2487.4" height="1725.5"></rect>
            </g>
            <g id="Layer_2" transform="translate(515.000000, 641.000000)">
                <g id="XMLID_121_">
                    <g id="XMLID_123_">
                        <path d="M965,301 L970,128.3 C970.1,118.3 1002.1,121.3 1002,128.3 L1001.7,294.3 L965,301 Z" id="XMLID_641_" fill="#507134" fill-rule="nonzero"></path>
                        <path d="M1630.4,33 L1629.2,5.2 C1625.4,-0.6 1598.4,-1.3 1594.2,6.2 L1595.1,33 L1630.4,33 Z" id="XMLID_640_" fill="#648C1A" fill-rule="nonzero"></path>
                        <path d="M1637.4,22.3 C1637.7,27.8 1626.8,32.8 1613.1,33.4 C1599.4,34 1588,30 1587.8,24.4 C1587.5,18.9 1598.4,13.9 1612.1,13.3 C1625.7,12.7 1637.1,16.7 1637.4,22.3 Z" id="XMLID_639_" fill="#648C1A" fill-rule="nonzero"></path>
                        <polygon id="XMLID_638_" fill="#648C1A" fill-rule="nonzero" points="1587.7 32.7 1587.7 24.4 1637.4 22.3 1637.4 30.5"></polygon>
                        <path d="M1596.2,30 C1600.4,22.5 1627.4,23.2 1631.2,29" id="XMLID_637_" stroke="#62C8D6"></path>
                        <path d="M1637.4,30.5 C1637.7,36 1626.8,41 1613.1,41.6 C1599.4,42.2 1588,38.2 1587.8,32.6 C1587.5,27.1 1598.4,22.1 1612.1,21.5 C1625.7,21 1637.1,25 1637.4,30.5 Z" id="XMLID_636_" fill="#38563C" fill-rule="nonzero"></path>
                        <path d="M1611.7,525.6 L1595.2,32.1 C1599.4,24.6 1626.4,25.3 1630.2,31.1 L1651.7,518.6 L1611.7,525.6 Z" id="XMLID_635_" fill="#648C1A" fill-rule="nonzero"></path>
                        <polygon id="XMLID_634_" fill="#82BC00" fill-rule="nonzero" points="253 827.5 254.3 810 33.4 876.3 11.4 1142.4 0.4 1273.3 65.5 1275.4 217.4 1294.3 377.4 990.3"></polygon>
                        <polygon id="XMLID_633_" fill="#38563C" fill-rule="nonzero" points="213.4 1293.3 245.9 852.3 37 905.2 6.4 1274.3"></polygon>
                        <path d="M364.7,856 L361,855.9 C361,855.9 361.5,828.3 361.5,827.5 C361.5,826.7 365.3,826.6 365.2,827.6 C365.2,828.5 364.7,856 364.7,856 Z" id="XMLID_632_" fill="#38563C" fill-rule="nonzero"></path>
                        <path d="M438.8,867.2 L435.1,867.1 C435.1,867.1 435.6,839.5 435.6,838.7 C435.6,837.8 439.4,837.8 439.3,838.8 C439.3,839.8 438.8,867.2 438.8,867.2 Z" id="XMLID_631_" fill="#38563C" fill-rule="nonzero"></path>
                        <path d="M512.9,878.5 L509.2,878.4 C509.2,878.4 509.7,850.8 509.7,850 C509.7,849.1 513.5,849.1 513.4,850.1 C513.4,851 512.9,878.5 512.9,878.5 Z" id="XMLID_630_" fill="#38563C" fill-rule="nonzero"></path>
                        <path d="M587,889.7 L583.3,889.6 C583.3,889.6 583.8,862 583.8,861.2 C583.8,860.3 587.6,860.3 587.5,861.3 C587.5,862.3 587,889.7 587,889.7 Z" id="XMLID_629_" fill="#38563C" fill-rule="nonzero"></path>
                        <path d="M661,901 L657.3,900.9 C657.3,900.9 657.8,873.3 657.8,872.5 C657.8,871.7 661.6,871.6 661.5,872.6 C661.4,873.6 661,901 661,901 Z" id="XMLID_628_" fill="#38563C" fill-rule="nonzero"></path>
                        <path d="M735.1,912.2 L731.4,912.1 C731.4,912.1 731.9,884.5 731.9,883.7 C731.9,882.8 735.7,882.8 735.6,883.8 C735.6,884.8 735.1,912.2 735.1,912.2 Z" id="XMLID_627_" fill="#38563C" fill-rule="nonzero"></path>
                        <polygon id="XMLID_626_" fill="#648C1A" fill-rule="nonzero" points="806.3 902.9 253 827.5 218.4 1294.3 939.5 1190.5"></polygon>
                        <polygon id="XMLID_625_" fill="#648C1A" fill-rule="nonzero" points="285 858 290.8 832.6 292 816.8 254.3 810 253 827.5 258.7 866.3"></polygon>
                        <polygon id="XMLID_624_" fill="#648C1A" fill-rule="nonzero" points="1813.4 452.3 2047 549.5 2064.7 783 1802 805.6 1731.4 542.3"></polygon>
                        <polygon id="XMLID_623_" fill="#82BC00" fill-rule="nonzero" points="1545.3 506.9 1813.4 452.3 1824.7 643.6 1545.3 682.3 1526.7 540.3"></polygon>
                        <polygon id="XMLID_622_" fill="#82BC00" fill-rule="nonzero" points="804 355.6 786.7 779 1076.7 741 1084.7 257"></polygon>
                        <polygon id="XMLID_621_" fill="#648C1A" fill-rule="nonzero" points="1084.7 257 1543.4 426.3 1550.6 681.3 1220.7 779 1076.7 741"></polygon>
                        <polygon id="XMLID_620_" fill="#38563C" fill-rule="nonzero" points="2022.8 743.4 2018.7 742.3 2021.9 786.7 2025.8 786.3"></polygon>
                        <polygon id="XMLID_619_" fill="#38563C" fill-rule="nonzero" points="2053 784 2057 783.6 2054.7 751.8 2050.7 750.7"></polygon>
                        <polygon id="XMLID_618_" fill="#38563C" fill-rule="nonzero" points="2046.8 749.7 2042.7 748.6 2045.2 784.6 2049.2 784.3"></polygon>
                        <polygon id="XMLID_617_" fill="#38563C" fill-rule="nonzero" points="2060.8 783.3 2064.7 783 2062.5 753.8 2058.6 752.8"></polygon>
                        <polygon id="XMLID_616_" fill="#38563C" fill-rule="nonzero" points="2038.8 747.6 2034.7 746.5 2037.4 785.3 2041.4 785"></polygon>
                        <polygon id="XMLID_615_" fill="#38563C" fill-rule="nonzero" points="2030.8 745.5 2026.7 744.4 2029.7 786 2033.6 785.6"></polygon>
                        <polygon id="XMLID_614_" fill="#38563C" fill-rule="nonzero" points="1974.9 786.8 1971 786.8 1967 730.1 1970.9 730.1"></polygon>
                        <polygon id="XMLID_613_" fill="#38563C" fill-rule="nonzero" points="1967 786.8 1963.2 786.8 1959.2 730.1 1963 730.1"></polygon>
                        <polygon id="XMLID_612_" fill="#38563C" fill-rule="nonzero" points="2002.1 783.1 1998.9 737.1 1994.8 736 1998.1 783.4"></polygon>
                        <polygon id="XMLID_611_" fill="#38563C" fill-rule="nonzero" points="2017.7 781.9 2014.8 741.3 2010.8 740.2 2013.7 782.2"></polygon>
                        <polygon id="XMLID_610_" fill="#38563C" fill-rule="nonzero" points="2009.9 782.5 2006.9 739.2 2002.8 738.1 2005.9 782.8"></polygon>
                        <path d="M1956,786.8 L1978.7,785 L1974.9,730.8 L1953.2,725.1 L1949.2,792.9 L1956.1,792.3 C1956.1,789.1 1956,786.8 1956,786.8 Z" id="XMLID_609_" fill="#38563C" fill-rule="nonzero"></path>
                        <polygon id="XMLID_608_" fill="#38563C" fill-rule="nonzero" points="1994.3 783.7 1990.9 735 1986.8 734 1990.3 784.1"></polygon>
                        <polygon id="XMLID_607_" fill="#38563C" fill-rule="nonzero" points="1986.5 784.4 1982.9 732.9 1978.8 731.9 1982.6 784.7"></polygon>
                        <polygon id="XMLID_606_" fill="#38563C" fill-rule="nonzero" points="1084.7 269.6 803.4 366.3 803.4 363 1084.7 265.6"></polygon>
                        <polygon id="XMLID_605_" fill="#38563C" fill-rule="nonzero" points="1084.7 265.6 1543.5 432.3 1543.5 436.3 1084.7 269.6"></polygon>
                        <polygon id="XMLID_604_" fill="#648C1A" fill-rule="nonzero" points="1066.2 531.1 1080.6 527.6 1076.7 741 1061.7 745.3"></polygon>
                        <polygon id="XMLID_603_" fill="#648C1A" fill-rule="nonzero" points="1041.2 537.1 1055.3 533.7 1050.7 746.7 1036.3 748.6"></polygon>
                        <polygon id="XMLID_602_" fill="#648C1A" fill-rule="nonzero" points="1016.6 543 1030.5 539.7 1025.5 750.1 1011.4 752"></polygon>
                        <polygon id="XMLID_601_" fill="#648C1A" fill-rule="nonzero" points="992.5 548.7 1006.1 545.5 1000.8 753.4 987 755.2"></polygon>
                        <polygon id="XMLID_600_" fill="#648C1A" fill-rule="nonzero" points="968.9 554.4 982.2 551.2 976.6 756.6 963 758.4"></polygon>
                        <polygon id="XMLID_599_" fill="#648C1A" fill-rule="nonzero" points="945.7 560 958.8 556.8 952.8 759.8 939.5 761.6"></polygon>
                        <polygon id="XMLID_598_" fill="#648C1A" fill-rule="nonzero" points="922.9 565.4 935.8 562.3 929.5 762.9 916.5 764.6"></polygon>
                        <polygon id="XMLID_597_" fill="#648C1A" fill-rule="nonzero" points="900.6 570.8 913.2 567.8 906.6 766 893.8 767.7"></polygon>
                        <polygon id="XMLID_596_" fill="#648C1A" fill-rule="nonzero" points="878.7 576 891 573.1 884.2 769 871.6 770.6"></polygon>
                        <polygon id="XMLID_595_" fill="#648C1A" fill-rule="nonzero" points="857.1 581.2 869.3 578.3 862.1 771.9 849.8 773.5"></polygon>
                        <polygon id="XMLID_594_" fill="#648C1A" fill-rule="nonzero" points="836 586.3 847.9 583.4 840.5 774.8 828.4 776.4"></polygon>
                        <polygon id="XMLID_593_" fill="#648C1A" fill-rule="nonzero" points="815.2 591.2 826.9 588.4 819.2 777.6 807.4 779.2"></polygon>
                        <polygon id="XMLID_592_" fill="#648C1A" fill-rule="nonzero" points="794.3 596.1 805.8 593.4 797.9 780.4 786.2 782"></polygon>
                        <polygon id="XMLID_591_" fill="#38563C" fill-rule="nonzero" points="1122.9 749.9 1108.4 748.5 1107.9 534.7 1122.1 538.2"></polygon>
                        <polygon id="XMLID_590_" fill="#38563C" fill-rule="nonzero" points="1153 753 1139.1 751.6 1138.1 542.1 1151.8 545.5"></polygon>
                        <polygon id="XMLID_589_" fill="#38563C" fill-rule="nonzero" points="1181.9 755.9 1168.6 754.5 1167.1 549.2 1180.2 552.5"></polygon>
                        <polygon id="XMLID_588_" fill="#38563C" fill-rule="nonzero" points="1209.7 758.7 1196.8 757.4 1194.9 556.1 1207.6 559.2"></polygon>
                        <polygon id="XMLID_587_" fill="#38563C" fill-rule="nonzero" points="1236.3 761.4 1224 760.1 1221.7 562.7 1233.9 565.7"></polygon>
                        <polygon id="XMLID_586_" fill="#38563C" fill-rule="nonzero" points="1262 763.9 1250.1 762.8 1247.5 569 1259.2 571.9"></polygon>
                        <polygon id="XMLID_585_" fill="#38563C" fill-rule="nonzero" points="1286.7 766.4 1275.2 765.3 1272.3 575.1 1283.5 577.9"></polygon>
                        <polygon id="XMLID_583_" fill="#38563C" fill-rule="nonzero" points="1310.4 768.8 1299.4 767.7 1296.2 581 1307 583.6"></polygon>
                        <polygon id="XMLID_578_" fill="#38563C" fill-rule="nonzero" points="1333.4 771.1 1322.8 770.1 1319.2 586.6 1329.7 589.2"></polygon>
                        <polygon id="XMLID_577_" fill="#38563C" fill-rule="nonzero" points="1355.5 773.4 1345.2 772.3 1341.4 592.1 1351.5 594.6"></polygon>
                        <polygon id="XMLID_576_" fill="#38563C" fill-rule="nonzero" points="1376.8 775.5 1366.9 774.5 1362.9 597.4 1372.6 599.8"></polygon>
                        <polygon id="XMLID_575_" fill="#38563C" fill-rule="nonzero" points="1397.4 777.6 1387.9 776.6 1383.6 602.5 1393 604.8"></polygon>
                        <polygon id="XMLID_574_" fill="#38563C" fill-rule="nonzero" points="1417.3 779.6 1408.1 778.7 1403.6 607.4 1412.7 609.6"></polygon>
                        <polygon id="XMLID_573_" fill="#38563C" fill-rule="nonzero" points="1436.6 781.5 1427.7 780.6 1423 612.2 1431.8 614.3"></polygon>
                        <polygon id="XMLID_572_" fill="#38563C" fill-rule="nonzero" points="1455.2 783.4 1446.6 782.5 1441.7 616.8 1450.3 618.9"></polygon>
                        <polygon id="XMLID_546_" fill="#38563C" fill-rule="nonzero" points="1473.2 785.2 1464.9 784.4 1459.9 621.2 1468.2 623.3"></polygon>
                        <polygon id="XMLID_545_" fill="#38563C" fill-rule="nonzero" points="1490.7 787 1482.6 786.2 1477.5 625.6 1485.5 627.5"></polygon>
                        <polygon id="XMLID_544_" fill="#38563C" fill-rule="nonzero" points="1507.6 788.7 1499.8 787.9 1494.5 629.7 1502.3 631.7"></polygon>
                        <polygon id="XMLID_509_" fill="#38563C" fill-rule="nonzero" points="1524 790.3 1516.4 789.6 1511 633.8 1518.5 635.7"></polygon>
                        <polygon id="XMLID_498_" fill="#38563C" fill-rule="nonzero" points="1539.9 791.9 1532.5 791.2 1527 637.7 1534.3 639.5"></polygon>
                        <polygon id="XMLID_384_" fill="#38563C" fill-rule="nonzero" points="1555.3 793.5 1548.2 792.8 1542.6 641.6 1549.7 643.3"></polygon>
                        <polygon id="XMLID_382_" fill="#38563C" fill-rule="nonzero" points="1091.2 530.6 1080.2 527.9 1076.7 741 1091.5 744.9"></polygon>
                        <polygon id="XMLID_381_" fill="#38563C" fill-rule="nonzero" points="1339.4 682.3 1374 630.3 1534.7 667 1542.7 807 1310 753"></polygon>
                        <polygon id="XMLID_380_" fill="#82BC00" fill-rule="nonzero" points="1201.2 724.6 1201.2 657.6 1374 630.3 1374 707.6"></polygon>
                        <polygon id="XMLID_379_" fill="#82BC00" fill-rule="nonzero" points="786.2 779 1835.6 641.5 1839 653.3 1847.3 809.3 1932.4 1091.3 779.4 1032.3"></polygon>
                        <polygon id="XMLID_378_" fill="#648C1A" fill-rule="nonzero" points="1206.1 929.5 1851.5 902.5 1853.2 933.3 1206.3 954.1"></polygon>
                        <polygon id="XMLID_377_" fill="#648C1A" fill-rule="nonzero" points="1068.5 762.3 1837.1 669.3 1838.7 699 1068.3 785"></polygon>
                        <polygon id="XMLID_376_" fill="#648C1A" fill-rule="nonzero" points="1068.1 819.1 1843 745.6 1844.6 775.6 1067.9 842"></polygon>
                        <polygon id="XMLID_375_" fill="#648C1A" fill-rule="nonzero" points="1067.6 876.4 1847.2 823.1 1848.8 853.4 1067.4 899.5"></polygon>
                        <polygon id="XMLID_374_" fill="#38563C" fill-rule="nonzero" points="1208 930.4 1851.6 903.5 1851.5 902.5 1206.1 929.5 1206.3 954.1 1208.2 954"></polygon>
                        <polygon id="XMLID_373_" fill="#38563C" fill-rule="nonzero" points="1070.5 763.2 1837.2 670.4 1837.1 669.3 1068.5 762.3 1068.3 785 1070.3 784.8"></polygon>
                        <polygon id="XMLID_372_" fill="#38563C" fill-rule="nonzero" points="1070 820 1841.3 746.8 1841.2 745.6 1068.1 819.1 1067.9 842 1069.8 841.8"></polygon>
                        <polygon id="XMLID_371_" fill="#38563C" fill-rule="nonzero" points="1069.5 877.3 1847.3 824.1 1847.2 823.1 1067.6 876.4 1067.4 899.5 1069.4 899.4"></polygon>
                        <polygon id="XMLID_370_" fill="#D4EB8D" fill-rule="nonzero" points="1796 700.6 1778.2 702.7 1777.1 681.6 1794.9 679.5"></polygon>
                        <polygon id="XMLID_369_" fill="#D4EB8D" fill-rule="nonzero" points="1090.6 780.1 1080.5 781.2 1080.6 765.3 1090.7 764"></polygon>
                        <polygon id="XMLID_368_" fill="#D4EB8D" fill-rule="nonzero" points="1109.1 778 1098.8 779.2 1098.9 763.1 1109.2 761.8"></polygon>
                        <polygon id="XMLID_367_" fill="#D4EB8D" fill-rule="nonzero" points="1127.9 775.9 1117.4 777.1 1117.5 760.8 1127.9 759.6"></polygon>
                        <polygon id="XMLID_366_" fill="#D4EB8D" fill-rule="nonzero" points="1147 773.8 1136.3 775 1136.4 758.6 1147 757.3"></polygon>
                        <polygon id="XMLID_365_" fill="#D4EB8D" fill-rule="nonzero" points="1166.5 771.6 1155.6 772.8 1155.6 756.2 1166.5 754.9"></polygon>
                        <polygon id="XMLID_364_" fill="#D4EB8D" fill-rule="nonzero" points="1186.3 769.3 1175.2 770.6 1175.2 753.9 1186.2 752.6"></polygon>
                        <polygon id="XMLID_363_" fill="#D4EB8D" fill-rule="nonzero" points="1206.4 767.1 1195.2 768.3 1195.2 751.5 1206.4 750.2"></polygon>
                        <polygon id="XMLID_362_" fill="#D4EB8D" fill-rule="nonzero" points="1226.9 764.7 1215.5 766 1215.5 749.1 1226.9 747.7"></polygon>
                        <polygon id="XMLID_361_" fill="#D4EB8D" fill-rule="nonzero" points="1247.9 762.4 1236.2 763.7 1236.1 746.6 1247.7 745.2"></polygon>
                        <polygon id="XMLID_360_" fill="#D4EB8D" fill-rule="nonzero" points="1269.1 760 1257.3 761.3 1257.2 744.1 1269 742.6"></polygon>
                        <polygon id="XMLID_359_" fill="#D4EB8D" fill-rule="nonzero" points="1290.8 757.6 1278.7 758.9 1278.6 741.5 1290.7 740"></polygon>
                        <polygon id="XMLID_358_" fill="#D4EB8D" fill-rule="nonzero" points="1312.9 755.1 1300.6 756.4 1300.4 738.9 1312.7 737.4"></polygon>
                        <polygon id="XMLID_357_" fill="#D4EB8D" fill-rule="nonzero" points="1335.4 752.5 1322.9 753.9 1322.7 736.2 1335.2 734.7"></polygon>
                        <polygon id="XMLID_356_" fill="#D4EB8D" fill-rule="nonzero" points="1358.4 749.9 1345.6 751.4 1345.3 733.5 1358.1 731.9"></polygon>
                        <polygon id="XMLID_355_" fill="#D4EB8D" fill-rule="nonzero" points="1381.7 747.3 1368.7 748.8 1368.4 730.7 1381.4 729.1"></polygon>
                        <polygon id="XMLID_354_" fill="#D4EB8D" fill-rule="nonzero" points="1405.6 744.6 1392.3 746.1 1392 727.9 1405.2 726.3"></polygon>
                        <polygon id="XMLID_353_" fill="#D4EB8D" fill-rule="nonzero" points="1429.9 741.9 1416.4 743.4 1416 725 1429.5 723.4"></polygon>
                        <polygon id="XMLID_352_" fill="#D4EB8D" fill-rule="nonzero" points="1454.7 739.1 1440.9 740.6 1440.5 722 1454.3 720.4"></polygon>
                        <polygon id="XMLID_350_" fill="#D4EB8D" fill-rule="nonzero" points="1480 736.2 1465.9 737.8 1465.5 719 1479.5 717.3"></polygon>
                        <polygon id="XMLID_349_" fill="#D4EB8D" fill-rule="nonzero" points="1505.8 733.3 1491.4 735 1490.9 716 1505.3 714.3"></polygon>
                        <polygon id="XMLID_348_" fill="#D4EB8D" fill-rule="nonzero" points="1532.1 730.4 1517.5 732 1516.9 712.9 1531.6 711.1"></polygon>
                        <polygon id="XMLID_347_" fill="#D4EB8D" fill-rule="nonzero" points="1559 727.3 1544 729 1543.5 709.7 1558.4 707.9"></polygon>
                        <polygon id="XMLID_346_" fill="#D4EB8D" fill-rule="nonzero" points="1586.5 724.2 1571.2 726 1570.5 706.4 1585.8 704.6"></polygon>
                        <polygon id="XMLID_345_" fill="#D4EB8D" fill-rule="nonzero" points="1614.5 721.1 1598.9 722.8 1598.2 703.1 1613.8 701.2"></polygon>
                        <polygon id="XMLID_344_" fill="#D4EB8D" fill-rule="nonzero" points="1643.1 717.9 1627.2 719.7 1626.4 699.7 1642.4 697.8"></polygon>
                        <polygon id="XMLID_343_" fill="#D4EB8D" fill-rule="nonzero" points="1672.4 714.6 1656.1 716.4 1655.3 696.2 1671.6 694.3"></polygon>
                        <polygon id="XMLID_342_" fill="#D4EB8D" fill-rule="nonzero" points="1702.3 711.2 1685.6 713.1 1684.8 692.7 1701.4 690.7"></polygon>
                        <polygon id="XMLID_341_" fill="#D4EB8D" fill-rule="nonzero" points="1732.8 707.8 1715.8 709.7 1714.9 689.1 1731.9 687"></polygon>
                        <polygon id="XMLID_340_" fill="#D4EB8D" fill-rule="nonzero" points="1764 704.2 1746.6 706.2 1745.7 685.4 1763 683.3"></polygon>
                        <polygon id="XMLID_339_" fill="#D4EB8D" fill-rule="nonzero" points="1799.8 776.3 1781.8 777.9 1780.8 756.6 1798.7 754.9"></polygon>
                        <polygon id="XMLID_338_" fill="#D4EB8D" fill-rule="nonzero" points="1090.2 837.6 1080.1 838.5 1080.2 822.4 1090.3 821.4"></polygon>
                        <polygon id="XMLID_337_" fill="#D4EB8D" fill-rule="nonzero" points="1108.8 836 1098.4 836.9 1098.5 820.7 1108.9 819.7"></polygon>
                        <polygon id="XMLID_336_" fill="#D4EB8D" fill-rule="nonzero" points="1127.7 834.4 1117.1 835.3 1117.2 818.9 1127.7 817.9"></polygon>
                        <polygon id="XMLID_335_" fill="#D4EB8D" fill-rule="nonzero" points="1146.9 832.7 1136.2 833.7 1136.2 817.1 1146.9 816.1"></polygon>
                        <polygon id="XMLID_334_" fill="#D4EB8D" fill-rule="nonzero" points="1166.4 831.1 1155.5 832 1155.6 815.3 1166.4 814.3"></polygon>
                        <polygon id="XMLID_333_" fill="#D4EB8D" fill-rule="nonzero" points="1186.3 829.3 1175.2 830.3 1175.2 813.5 1186.3 812.4"></polygon>
                        <polygon id="XMLID_332_" fill="#D4EB8D" fill-rule="nonzero" points="1206.6 827.6 1195.3 828.6 1195.3 811.6 1206.5 810.5"></polygon>
                        <polygon id="XMLID_331_" fill="#D4EB8D" fill-rule="nonzero" points="1227.2 825.8 1215.7 826.8 1215.7 809.7 1227.1 808.6"></polygon>
                        <polygon id="XMLID_330_" fill="#D4EB8D" fill-rule="nonzero" points="1248.2 824 1236.5 825 1236.4 807.7 1248.1 806.6"></polygon>
                        <polygon id="XMLID_329_" fill="#D4EB8D" fill-rule="nonzero" points="1269.6 822.1 1257.7 823.2 1257.6 805.7 1269.5 804.6"></polygon>
                        <polygon id="XMLID_328_" fill="#D4EB8D" fill-rule="nonzero" points="1291.4 820.3 1279.3 821.3 1279.1 803.7 1291.3 802.6"></polygon>
                        <polygon id="XMLID_327_" fill="#D4EB8D" fill-rule="nonzero" points="1313.6 818.3 1301.3 819.4 1301.1 801.6 1313.4 800.5"></polygon>
                        <polygon id="XMLID_326_" fill="#D4EB8D" fill-rule="nonzero" points="1336.3 816.4 1323.7 817.5 1323.4 799.5 1336 798.4"></polygon>
                        <polygon id="XMLID_325_" fill="#D4EB8D" fill-rule="nonzero" points="1359.3 814.4 1346.5 815.5 1346.2 797.4 1359.1 796.2"></polygon>
                        <polygon id="XMLID_324_" fill="#D4EB8D" fill-rule="nonzero" points="1382.8 812.4 1369.7 813.5 1369.5 795.2 1382.5 794"></polygon>
                        <polygon id="XMLID_323_" fill="#D4EB8D" fill-rule="nonzero" points="1406.8 810.3 1393.5 811.4 1393.1 793 1406.5 791.7"></polygon>
                        <polygon id="XMLID_322_" fill="#D4EB8D" fill-rule="nonzero" points="1431.3 808.2 1417.7 809.3 1417.3 790.7 1430.9 789.4"></polygon>
                        <polygon id="XMLID_321_" fill="#D4EB8D" fill-rule="nonzero" points="1456.2 806 1442.3 807.2 1441.9 788.4 1455.8 787.1"></polygon>
                        <polygon id="XMLID_320_" fill="#D4EB8D" fill-rule="nonzero" points="1481.7 803.8 1467.5 805 1467 786 1481.2 784.7"></polygon>
                        <polygon id="XMLID_318_" fill="#D4EB8D" fill-rule="nonzero" points="1507.6 801.6 1493.2 802.8 1492.7 783.6 1507.1 782.3"></polygon>
                        <polygon id="XMLID_317_" fill="#D4EB8D" fill-rule="nonzero" points="1534.1 799.3 1519.4 800.6 1518.8 781.2 1533.6 779.8"></polygon>
                        <polygon id="XMLID_316_" fill="#D4EB8D" fill-rule="nonzero" points="1561.2 796.9 1546.1 798.2 1545.5 778.7 1560.6 777.3"></polygon>
                        <polygon id="XMLID_315_" fill="#D4EB8D" fill-rule="nonzero" points="1588.8 794.6 1573.4 795.9 1572.8 776.1 1588.2 774.7"></polygon>
                        <polygon id="XMLID_314_" fill="#D4EB8D" fill-rule="nonzero" points="1617 792.1 1601.3 793.5 1600.6 773.5 1616.3 772"></polygon>
                        <polygon id="XMLID_313_" fill="#D4EB8D" fill-rule="nonzero" points="1645.8 789.6 1629.8 791 1629 770.8 1645.1 769.3"></polygon>
                        <polygon id="XMLID_312_" fill="#D4EB8D" fill-rule="nonzero" points="1675.3 787.1 1658.9 788.5 1658.1 768.1 1674.5 766.6"></polygon>
                        <polygon id="XMLID_311_" fill="#D4EB8D" fill-rule="nonzero" points="1705.4 784.5 1688.6 785.9 1687.8 765.3 1704.5 763.7"></polygon>
                        <polygon id="XMLID_310_" fill="#D4EB8D" fill-rule="nonzero" points="1736.2 781.8 1719 783.3 1718.1 762.5 1735.2 760.9"></polygon>
                        <polygon id="XMLID_309_" fill="#D4EB8D" fill-rule="nonzero" points="1767.6 779.1 1750.1 780.6 1749.1 759.5 1766.6 757.9"></polygon>
                        <polygon id="XMLID_308_" fill="#D4EB8D" fill-rule="nonzero" points="1803.7 852.9 1785.6 854 1784.5 832.5 1802.6 831.2"></polygon>
                        <polygon id="XMLID_307_" fill="#D4EB8D" fill-rule="nonzero" points="1089.8 895.7 1079.6 896.3 1079.8 880 1090 879.4"></polygon>
                        <polygon id="XMLID_306_" fill="#D4EB8D" fill-rule="nonzero" points="1108.5 894.6 1098.1 895.2 1098.2 878.8 1108.6 878.1"></polygon>
                        <polygon id="XMLID_305_" fill="#D4EB8D" fill-rule="nonzero" points="1127.5 893.5 1116.9 894.1 1117 877.5 1127.5 876.8"></polygon>
                        <polygon id="XMLID_304_" fill="#D4EB8D" fill-rule="nonzero" points="1146.8 892.3 1136 892.9 1136.1 876.2 1146.8 875.5"></polygon>
                        <polygon id="XMLID_303_" fill="#D4EB8D" fill-rule="nonzero" points="1166.4 891.1 1155.5 891.8 1155.5 874.9 1166.4 874.2"></polygon>
                        <polygon id="XMLID_302_" fill="#D4EB8D" fill-rule="nonzero" points="1186.4 889.9 1175.3 890.6 1175.3 873.6 1186.4 872.8"></polygon>
                        <polygon id="XMLID_301_" fill="#D4EB8D" fill-rule="nonzero" points="1206.8 888.7 1195.4 889.4 1195.4 872.2 1206.7 871.5"></polygon>
                        <polygon id="XMLID_300_" fill="#D4EB8D" fill-rule="nonzero" points="1227.5 887.5 1215.9 888.2 1215.9 870.9 1227.4 870.1"></polygon>
                        <polygon id="XMLID_299_" fill="#D4EB8D" fill-rule="nonzero" points="1248.6 886.2 1236.8 886.9 1236.8 869.4 1248.5 868.6"></polygon>
                        <polygon id="XMLID_298_" fill="#D4EB8D" fill-rule="nonzero" points="1270.1 884.9 1258.1 885.6 1258 868 1270 867.2"></polygon>
                        <polygon id="XMLID_297_" fill="#D4EB8D" fill-rule="nonzero" points="1292 883.6 1279.8 884.3 1279.7 866.5 1291.9 865.7"></polygon>
                        <polygon id="XMLID_296_" fill="#D4EB8D" fill-rule="nonzero" points="1314.4 882.3 1301.9 883 1301.7 865.1 1314.2 864.2"></polygon>
                        <polygon id="XMLID_295_" fill="#D4EB8D" fill-rule="nonzero" points="1337.1 880.9 1324.4 881.7 1324.2 863.5 1336.9 862.7"></polygon>
                        <polygon id="XMLID_294_" fill="#D4EB8D" fill-rule="nonzero" points="1360.3 879.5 1347.4 880.3 1347.1 862 1360 861.1"></polygon>
                        <polygon id="XMLID_293_" fill="#D4EB8D" fill-rule="nonzero" points="1384 878.1 1370.8 878.9 1370.5 860.4 1383.6 859.5"></polygon>
                        <polygon id="XMLID_292_" fill="#D4EB8D" fill-rule="nonzero" points="1408.1 876.6 1394.6 877.5 1394.3 858.8 1407.7 857.9"></polygon>
                        <polygon id="XMLID_291_" fill="#D4EB8D" fill-rule="nonzero" points="1432.7 875.2 1419 876 1418.6 857.2 1432.3 856.2"></polygon>
                        <polygon id="XMLID_290_" fill="#D4EB8D" fill-rule="nonzero" points="1457.8 873.7 1443.8 874.5 1443.4 855.5 1457.3 854.6"></polygon>
                        <polygon id="XMLID_289_" fill="#D4EB8D" fill-rule="nonzero" points="1483.4 872.1 1469.1 873 1468.6 853.8 1482.9 852.8"></polygon>
                        <polygon id="XMLID_288_" fill="#D4EB8D" fill-rule="nonzero" points="1509.5 870.6 1494.9 871.4 1494.4 852 1509 851.1"></polygon>
                        <polygon id="XMLID_285_" fill="#D4EB8D" fill-rule="nonzero" points="1536.2 869 1521.3 869.9 1520.8 850.3 1535.6 849.3"></polygon>
                        <polygon id="XMLID_277_" fill="#D4EB8D" fill-rule="nonzero" points="1563.4 867.3 1548.2 868.3 1547.6 848.5 1562.8 847.4"></polygon>
                        <polygon id="XMLID_276_" fill="#D4EB8D" fill-rule="nonzero" points="1591.2 865.7 1575.7 866.6 1575.1 846.6 1590.5 845.6"></polygon>
                        <polygon id="XMLID_275_" fill="#D4EB8D" fill-rule="nonzero" points="1619.6 864 1603.8 864.9 1603.1 844.7 1618.9 843.6"></polygon>
                        <polygon id="XMLID_274_" fill="#D4EB8D" fill-rule="nonzero" points="1648.6 862.2 1632.4 863.2 1631.7 842.8 1647.8 841.7"></polygon>
                        <polygon id="XMLID_273_" fill="#D4EB8D" fill-rule="nonzero" points="1678.3 860.5 1661.7 861.4 1660.9 840.8 1677.4 839.7"></polygon>
                        <polygon id="XMLID_272_" fill="#D4EB8D" fill-rule="nonzero" points="1708.6 858.6 1691.7 859.7 1690.8 838.8 1707.7 837.7"></polygon>
                        <polygon id="XMLID_271_" fill="#D4EB8D" fill-rule="nonzero" points="1739.6 856.8 1722.3 857.8 1721.4 836.7 1738.6 835.6"></polygon>
                        <polygon id="XMLID_270_" fill="#D4EB8D" fill-rule="nonzero" points="1771.2 854.9 1753.6 855.9 1752.6 834.6 1770.2 833.4"></polygon>
                        <polygon id="XMLID_269_" fill="#D4EB8D" fill-rule="nonzero" points="1807.7 931.6 1789.4 932.2 1788.4 910.3 1806.5 909.6"></polygon>
                        <polygon id="XMLID_268_" fill="#D4EB8D" fill-rule="nonzero" points="1227.8 950.8 1216.2 951.2 1216.1 933.7 1227.7 933.2"></polygon>
                        <polygon id="XMLID_267_" fill="#D4EB8D" fill-rule="nonzero" points="1249 950.1 1237.2 950.5 1237.1 932.8 1248.9 932.3"></polygon>
                        <polygon id="XMLID_266_" fill="#D4EB8D" fill-rule="nonzero" points="1270.6 949.4 1258.6 949.8 1258.5 932 1270.5 931.5"></polygon>
                        <polygon id="XMLID_265_" fill="#D4EB8D" fill-rule="nonzero" points="1292.7 948.6 1280.4 949 1280.2 931.1 1292.5 930.6"></polygon>
                        <polygon id="XMLID_264_" fill="#D4EB8D" fill-rule="nonzero" points="1315.1 947.9 1302.6 948.3 1302.4 930.2 1314.9 929.6"></polygon>
                        <polygon id="XMLID_263_" fill="#D4EB8D" fill-rule="nonzero" points="1338 947.1 1325.2 947.5 1325 929.2 1337.8 928.7"></polygon>
                        <polygon id="XMLID_262_" fill="#D4EB8D" fill-rule="nonzero" points="1361.3 946.4 1348.3 946.8 1348.1 928.3 1361 927.8"></polygon>
                        <polygon id="XMLID_261_" fill="#D4EB8D" fill-rule="nonzero" points="1385.1 945.6 1371.9 946 1371.6 927.3 1384.8 926.8"></polygon>
                        <polygon id="XMLID_260_" fill="#D4EB8D" fill-rule="nonzero" points="1409.4 944.8 1395.9 945.2 1395.5 926.4 1409 925.8"></polygon>
                        <polygon id="XMLID_259_" fill="#D4EB8D" fill-rule="nonzero" points="1434.1 943.9 1420.3 944.4 1420 925.4 1433.7 924.8"></polygon>
                        <polygon id="XMLID_258_" fill="#D4EB8D" fill-rule="nonzero" points="1459.4 943.1 1445.3 943.6 1444.9 924.3 1458.9 923.8"></polygon>
                        <polygon id="XMLID_257_" fill="#D4EB8D" fill-rule="nonzero" points="1485.1 942.2 1470.8 942.7 1470.3 923.3 1484.6 922.7"></polygon>
                        <polygon id="XMLID_256_" fill="#D4EB8D" fill-rule="nonzero" points="1511.4 941.4 1496.8 941.9 1496.3 922.2 1510.9 921.6"></polygon>
                        <polygon id="XMLID_227_" fill="#D4EB8D" fill-rule="nonzero" points="1538.3 940.5 1523.3 941 1522.8 921.2 1537.7 920.6"></polygon>
                        <polygon id="XMLID_226_" fill="#D4EB8D" fill-rule="nonzero" points="1565.7 939.6 1550.4 940.1 1549.8 920.1 1565 919.4"></polygon>
                        <polygon id="XMLID_225_" fill="#D4EB8D" fill-rule="nonzero" points="1593.7 938.6 1578.1 939.2 1577.4 918.9 1593 918.3"></polygon>
                        <polygon id="XMLID_224_" fill="#D4EB8D" fill-rule="nonzero" points="1622.3 937.7 1606.3 938.2 1605.6 917.8 1621.5 917.1"></polygon>
                        <polygon id="XMLID_223_" fill="#D4EB8D" fill-rule="nonzero" points="1651.5 936.7 1635.2 937.3 1634.4 916.6 1650.7 915.9"></polygon>
                        <polygon id="XMLID_222_" fill="#D4EB8D" fill-rule="nonzero" points="1681.3 935.7 1664.7 936.3 1663.9 915.4 1680.5 914.7"></polygon>
                        <polygon id="XMLID_221_" fill="#D4EB8D" fill-rule="nonzero" points="1711.9 934.7 1694.8 935.3 1694 914.2 1711 913.5"></polygon>
                        <polygon id="XMLID_220_" fill="#D4EB8D" fill-rule="nonzero" points="1743.1 933.7 1725.7 934.3 1724.7 912.9 1742.1 912.2"></polygon>
                        <polygon id="XMLID_219_" fill="#D4EB8D" fill-rule="nonzero" points="1775 932.6 1757.2 933.2 1756.2 911.6 1774 910.9"></polygon>
                        <polygon id="XMLID_218_" fill="#648C1A" fill-rule="nonzero" points="1835.6 641.5 1845.4 819.6 1976.4 782.3 1975.6 780.2 1977.2 779 1973.9 734.8 1972.4 734.3 1970.8 705.6 1972.1 706 1970.4 683.3"></polygon>
                        <polygon id="XMLID_217_" fill="#38563C" fill-rule="nonzero" points="1978.3 805.6 1843 775.8 1841.2 745.6 1976.6 779.5"></polygon>
                        <polygon id="XMLID_216_" fill="#38563C" fill-rule="nonzero" points="1972.4 734.3 1838.7 699 1837.1 669.3 1970.8 705.6"></polygon>
                        <polygon id="XMLID_215_" fill="#D4EB8D" fill-rule="nonzero" points="1853.2 699.5 1841 696.3 1839.6 675.3 1851.8 678.6"></polygon>
                        <polygon id="XMLID_214_" fill="#D4EB8D" fill-rule="nonzero" points="1872.4 704.6 1860.3 701.4 1858.9 680.6 1871 683.8"></polygon>
                        <polygon id="XMLID_213_" fill="#D4EB8D" fill-rule="nonzero" points="1891.5 709.7 1879.5 706.5 1878.1 685.7 1890.1 689"></polygon>
                        <polygon id="XMLID_212_" fill="#D4EB8D" fill-rule="nonzero" points="1910.4 714.8 1898.5 711.6 1897.2 690.9 1909.1 694.1"></polygon>
                        <polygon id="XMLID_211_" fill="#D4EB8D" fill-rule="nonzero" points="1929.2 719.8 1917.4 716.6 1916.1 696 1927.9 699.2"></polygon>
                        <polygon id="XMLID_210_" fill="#D4EB8D" fill-rule="nonzero" points="1947.9 724.7 1936.2 721.6 1934.8 701 1946.6 704.2"></polygon>
                        <polygon id="XMLID_209_" fill="#D4EB8D" fill-rule="nonzero" points="1966.4 729.6 1954.8 726.5 1953.5 706.1 1965.1 709.2"></polygon>
                        <polygon id="XMLID_208_" fill="#D4EB8D" fill-rule="nonzero" points="1858.9 776 1845.7 773 1844.3 751.7 1857.6 754.9"></polygon>
                        <polygon id="XMLID_207_" fill="#D4EB8D" fill-rule="nonzero" points="1879.4 780.6 1866.6 777.7 1865.3 756.7 1878.1 759.8"></polygon>
                        <polygon id="XMLID_206_" fill="#D4EB8D" fill-rule="nonzero" points="1899.2 785 1886.8 782.2 1885.6 761.6 1897.9 764.6"></polygon>
                        <polygon id="XMLID_205_" fill="#D4EB8D" fill-rule="nonzero" points="1918.2 789.3 1906.3 786.6 1905.1 766.4 1917.1 769.3"></polygon>
                        <polygon id="XMLID_204_" fill="#D4EB8D" fill-rule="nonzero" points="1936.7 793.4 1925.1 790.8 1924 770.9 1935.6 773.7"></polygon>
                        <polygon id="XMLID_203_" fill="#D4EB8D" fill-rule="nonzero" points="1954.5 797.4 1943.4 794.9 1942.3 775.3 1953.5 778.1"></polygon>
                        <polygon id="XMLID_202_" fill="#D4EB8D" fill-rule="nonzero" points="1971.8 801.3 1961 798.8 1959.9 779.6 1970.8 782.2"></polygon>
                        <polyline id="XMLID_201_" fill="#38563C" fill-rule="nonzero" points="1837.2 670.4 1970.8 706.2 1970.9 706.5 1972.1 706 1837.1 669.3 1837.2 670.4"></polyline>
                        <polyline id="XMLID_200_" fill="#38563C" fill-rule="nonzero" points="1841.2 745.6 1841.3 746.8 1976.6 779.5 1976.6 779.8 1977.2 779"></polyline>
                        <polygon id="XMLID_199_" fill="#38563C" fill-rule="nonzero" points="1065.4 937 1107.9 993.4 1064.2 993.4"></polygon>
                        <polygon id="XMLID_198_" fill="#38563C" fill-rule="nonzero" points="783.1 899.7 832.8 1040 779.3 1036.5"></polygon>
                        <polygon id="XMLID_197_" fill="#648C1A" fill-rule="nonzero" points="743.4 916.3 1065.4 937 1063.4 1029.3 663.4 1021.6"></polygon>
                        <path d="M1004.8,781.2 C1004.8,781.2 989,791.7 987,796.4 C984.9,801.2 985.1,800.2 982.2,802.7 C979.3,805.2 975.4,805.9 974,807.4 C972.6,808.9 974.8,810.2 972.6,811.6 C970.4,813 967.5,814.3 966.7,817.6 C965.9,820.9 969.2,820.1 970,822.9 C970.8,825.7 967.3,825.7 967.3,829.2 C967.3,832.7 971,834.5 971.3,836.7 C971.6,838.9 969.3,841.2 970.1,845.4 C970.9,849.6 965.9,848.1 965.1,849.1 C964.3,850.1 966.4,853.4 970.4,853.4 C974.4,853.4 972.1,849.9 975.6,849.1 C979.1,848.3 991.3,855.4 995.3,851.6 C999.3,847.8 1004.7,849.1 1004.7,849.1 L1004.7,781.2 L1004.8,781.2 Z" id="XMLID_196_" fill="#D4EB8D" fill-rule="nonzero"></path>
                        <path d="M997.4,999.3 C997.4,999.3 1004.5,792.1 1004.9,779 C1004.9,777.4 1008.9,777.5 1008.9,779 C1008.7,791.3 1004.4,999.3 1004.4,999.3 L997.4,999.3 Z" id="XMLID_195_" fill="#38563C" fill-rule="nonzero"></path>
                        <path d="M917.5,786.6 C915.8,800.3 899.5,832.7 897.5,834.6 C895.5,836.5 891.7,839.8 890.3,842.8 C889,845.8 888.1,854.4 886.8,857.8 C885.5,861.2 881.2,858.3 881.5,859 C883.4,864.1 889.2,859 892.3,860.8 C895.5,862.6 898,857.8 900.3,859 C902.6,860.1 915.1,857.2 915.1,862.3 C915.2,867.4 917.5,786.6 917.5,786.6 Z" id="XMLID_194_" fill="#D4EB8D" fill-rule="nonzero"></path>
                        <path d="M906,1002.3 C906,1002.3 916.1,787.3 916.3,785.1 C916.4,783.9 921.3,784.1 921.3,785.1 C921.3,786.8 912.3,1002.3 912.3,1002.3 L906,1002.3 Z" id="XMLID_193_" fill="#38563C" fill-rule="nonzero"></path>
                        <polygon id="XMLID_192_" fill="#82BC00" fill-rule="nonzero" points="2153.4 1205.3 2153.4 767.3 1737.4 801.3 1743.4 983.3 738.4 999.3 743.4 916.3 478.4 930.3 467.7 1129.3"></polygon>
                        <polygon id="XMLID_190_" fill="#38563C" fill-rule="nonzero" points="572.4 1010.8 566 1133.7 631.7 1136.7 638.7 1007 592 1008.3"></polygon>
                        <polygon id="XMLID_189_" fill="#648C1A" fill-rule="nonzero" points="571.1 1035 621.9 1036 624.4 1033.8 625.4 1021.5 623.4 1019.3 572.4 1018.8 566 1021.3 565.4 1026.3"></polygon>
                        <polygon id="XMLID_188_" fill="#38563C" fill-rule="nonzero" points="567 1022.3 619.1 1022.5 618.6 1026 566.4 1025.3"></polygon>
                        <path d="M2154.9,837.4 L1750.4,855.5" id="XMLID_187_" stroke="#38563C"></path>
                        <path d="M2154.9,874.7 L1748.4,890" id="XMLID_186_" stroke="#38563C"></path>
                        <path d="M2154.9,907.6 L1752.4,920.3" id="XMLID_185_" stroke="#38563C"></path>
                        <path d="M2154.9,943.5 L1752.4,953.5" id="XMLID_184_" stroke="#38563C"></path>
                        <polyline id="XMLID_183_" stroke="#38563C" points="2154.9 978 1753.4 985.3 1735 985.6"></polyline>
                        <path d="M2154.9,1015.5 L638.7,1032.4" id="XMLID_182_" stroke="#38563C"></path>
                        <path d="M2154.9,1050 L636.8,1057.1" id="XMLID_181_" stroke="#38563C"></path>
                        <path d="M2154.9,1086.1 L636.8,1082.8" id="XMLID_180_" stroke="#38563C"></path>
                        <path d="M2154.9,1119.2 L633.8,1106.4" id="XMLID_179_" stroke="#38563C"></path>
                        <path d="M2154.9,1156.9 L633.6,1133.3" id="XMLID_178_" stroke="#38563C"></path>
                        <polygon id="XMLID_177_" fill="#648C1A" fill-rule="nonzero" points="1820.4 1182.5 1807.7 834.8 1811.9 833.4 1825.4 1185.4"></polygon>
                        <polygon id="XMLID_176_" fill="#38563C" fill-rule="nonzero" points="1808.6 913.5 1816.5 913.5 1819.6 1003.8 1811.9 1003.8"></polygon>
                        <polygon id="XMLID_175_" fill="#38563C" fill-rule="nonzero" points="1564.1 1057.3 1554.4 1057.2 1554.4 1043.2 1564.1 1043.3"></polygon>
                        <polygon id="XMLID_174_" fill="#38563C" fill-rule="nonzero" points="1673 1058 1663.4 1057.9 1663.4 1043.9 1673 1044"></polygon>
                        <polygon id="XMLID_173_" fill="#38563C" fill-rule="nonzero" points="1432.1 1056.4 1422.4 1056.4 1422.4 1042.4 1432.1 1042.4"></polygon>
                        <polygon id="XMLID_172_" fill="#38563C" fill-rule="nonzero" points="1149.1 1054.6 1142.1 1054.6 1142.1 1040.6 1149.1 1040.6"></polygon>
                        <polygon id="XMLID_171_" fill="#38563C" fill-rule="nonzero" points="1053.5 1054 1046.4 1054 1046.4 1040 1053.5 1040"></polygon>
                        <polygon id="XMLID_170_" fill="#38563C" fill-rule="nonzero" points="985.1 1053.6 979 1053.5 979 1039.5 985.1 1039.6"></polygon>
                        <polygon id="XMLID_169_" fill="#38563C" fill-rule="nonzero" points="901.9 1053 895.8 1053 895.8 1039 901.9 1039"></polygon>
                        <polygon id="XMLID_168_" fill="#38563C" fill-rule="nonzero" points="845.1 1052.7 840 1052.6 840 1038.6 845.1 1038.7"></polygon>
                        <polygon id="XMLID_167_" fill="#38563C" fill-rule="nonzero" points="775 1052.2 769.8 1052.2 769.8 1038.2 775 1038.2"></polygon>
                        <polygon id="XMLID_166_" fill="#38563C" fill-rule="nonzero" points="735.9 1009.5 740.7 926.1 485.7 939.1 476 1122.3 470.4 1122.3 480.4 935.3 745.4 921.3 740.4 1004.3"></polygon>
                        <g id="XMLID_164_" transform="translate(633.000000, 1009.000000)" fill-rule="nonzero" fill="#38563C">
                            <rect id="XMLID_165_" transform="translate(5.778847, 50.971377) rotate(2.406562) translate(-5.778847, -50.971377) " x="2.77890081" y="0.472288621" width="5.99989174" height="100.998178"></rect>
                        </g>
                        <g id="XMLID_162_" transform="translate(743.000000, 1009.000000)" fill-rule="nonzero" fill="#38563C">
                            <rect id="XMLID_163_" transform="translate(4.750524, 51.016877) rotate(1.492167) translate(-4.750524, -51.016877) " x="1.7504064" y="0.564903576" width="6.00023471" height="100.903947"></rect>
                        </g>
                        <g id="XMLID_160_" transform="translate(868.000000, 1009.000000)" fill-rule="nonzero" fill="#38563C">
                            <rect id="XMLID_161_" transform="translate(5.055434, 51.016553) rotate(1.492167) translate(-5.055434, -51.016553) " x="2.0553164" y="0.564579719" width="6.00023471" height="100.903947"></rect>
                        </g>
                        <g id="XMLID_158_" transform="translate(1012.000000, 1007.000000)" fill-rule="nonzero" fill="#38563C">
                            <rect id="XMLID_159_" transform="translate(4.575264, 68.723503) rotate(1.100468) translate(-4.575264, -68.723503) " x="1.57531073" y="0.47456464" width="5.99990665" height="136.497876"></rect>
                        </g>
                        <g id="XMLID_156_" transform="translate(1180.000000, 1007.000000)" fill-rule="nonzero" fill="#38563C">
                            <rect id="XMLID_157_" transform="translate(4.065125, 74.566140) rotate(0.503544) translate(-4.065125, -74.566140) " x="1.06500877" y="0.363274767" width="6.00023172" height="148.405731"></rect>
                        </g>
                        <g id="XMLID_154_" transform="translate(1378.000000, 1005.000000)" fill-rule="nonzero" fill="#38563C">
                            <rect id="XMLID_155_" transform="translate(4.054084, 80.501518) rotate(89.281346) translate(-4.054084, -80.501518) " x="-76.0442065" y="77.5015819" width="160.196581" height="5.99987196"></rect>
                        </g>
                        <g id="XMLID_152_" transform="translate(1610.000000, 1003.000000)" fill-rule="nonzero" fill="#38563C">
                            <rect id="XMLID_153_" transform="translate(5.811843, 85.193688) rotate(88.501508) translate(-5.811843, -85.193688) " x="-78.4916979" y="82.1935625" width="168.607081" height="6.00025201"></rect>
                        </g>
                        <g id="XMLID_150_" transform="translate(1751.000000, 840.000000)" fill-rule="nonzero" fill="#38563C">
                            <rect id="XMLID_151_" transform="translate(10.595683, 175.473344) rotate(87.748443) translate(-10.595683, -175.473344) " x="-164.299421" y="172.473428" width="349.790209" height="5.99983206"></rect>
                        </g>
                        <g id="XMLID_148_" transform="translate(2054.000000, 816.000000)" fill-rule="nonzero" fill="#38563C">
                            <rect id="XMLID_149_" transform="translate(16.009077, 186.043249) rotate(86.179715) translate(-16.009077, -186.043249) " x="-169.645027" y="183.043183" width="371.308208" height="6.00013264"></rect>
                        </g>
                        <polygon id="XMLID_147_" fill="#38563C" fill-rule="nonzero" points="2156.4 813.8 1754.6 844 1760.4 999.8 572.4 1015.8 572.4 1007.6 740.4 1004.3 1745.4 988.3 1739.4 806.3 2155.4 772.3"></polygon>
                        <polygon id="XMLID_146_" fill="#648C1A" fill-rule="nonzero" points="743.4 916.3 749.2 916.7 744.4 1003.3 736.2 1001.8"></polygon>
                        <polygon id="XMLID_145_" fill="#82BC00" fill-rule="nonzero" points="733.9 1004.5 738.7 921.1 483.7 934.1 474 1117.3 468.4 1117.3 478.4 930.3 743.4 916.3 738.4 999.3"></polygon>
                        <g id="XMLID_143_" transform="translate(631.000000, 1004.000000)" fill-rule="nonzero" fill="#648C1A">
                            <rect id="XMLID_144_" transform="translate(5.778893, 50.971399) rotate(2.406562) translate(-5.778893, -50.971399) " x="2.77894741" y="0.472309981" width="5.99989174" height="100.998178"></rect>
                        </g>
                        <g id="XMLID_141_" transform="translate(741.000000, 1004.000000)" fill-rule="nonzero" fill="#648C1A">
                            <rect id="XMLID_142_" transform="translate(4.750430, 51.016695) rotate(1.492167) translate(-4.750430, -51.016695) " x="1.75031295" y="0.564720956" width="6.00023471" height="100.903947"></rect>
                        </g>
                        <g id="XMLID_139_" transform="translate(866.000000, 1004.000000)" fill-rule="nonzero" fill="#648C1A">
                            <rect id="XMLID_140_" transform="translate(5.055340, 51.016371) rotate(1.492167) translate(-5.055340, -51.016371) " x="2.05522295" y="0.564397099" width="6.00023471" height="100.903947"></rect>
                        </g>
                        <g id="XMLID_137_" transform="translate(1010.000000, 1002.000000)" fill-rule="nonzero" fill="#648C1A">
                            <rect id="XMLID_138_" transform="translate(4.575291, 68.723592) rotate(1.100468) translate(-4.575291, -68.723592) " x="1.57533728" y="0.47465402" width="5.99990665" height="136.497876"></rect>
                        </g>
                        <g id="XMLID_135_" transform="translate(1178.000000, 1002.000000)" fill-rule="nonzero" fill="#648C1A">
                            <rect id="XMLID_136_" transform="translate(4.065068, 74.565963) rotate(0.503544) translate(-4.065068, -74.565963) " x="1.06495239" y="0.363097321" width="6.00023172" height="148.405731"></rect>
                        </g>
                        <g id="XMLID_133_" transform="translate(1376.000000, 1000.000000)" fill-rule="nonzero" fill="#648C1A">
                            <rect id="XMLID_134_" transform="translate(4.053900, 80.501606) rotate(89.281346) translate(-4.053900, -80.501606) " x="-76.0443911" y="77.5016705" width="160.196581" height="5.99987196"></rect>
                        </g>
                        <g id="XMLID_131_" transform="translate(1608.000000, 998.000000)" fill-rule="nonzero" fill="#648C1A">
                            <rect id="XMLID_132_" transform="translate(5.812039, 85.193630) rotate(88.501508) translate(-5.812039, -85.193630) " x="-78.4915014" y="82.1935038" width="168.607081" height="6.00025201"></rect>
                        </g>
                        <g id="XMLID_129_" transform="translate(1749.000000, 835.000000)" fill-rule="nonzero" fill="#648C1A">
                            <rect id="XMLID_130_" transform="translate(10.595411, 175.473414) rotate(87.748443) translate(-10.595411, -175.473414) " x="-164.299693" y="172.473498" width="349.790209" height="5.99983206"></rect>
                        </g>
                        <g id="XMLID_127_" transform="translate(2052.000000, 811.000000)" fill-rule="nonzero" fill="#648C1A">
                            <rect id="XMLID_128_" transform="translate(16.009420, 186.043306) rotate(86.179715) translate(-16.009420, -186.043306) " x="-169.644684" y="183.04324" width="371.308208" height="6.00013264"></rect>
                        </g>
                        <polygon id="XMLID_126_" fill="#648C1A" fill-rule="nonzero" points="2154.4 808.8 1752.6 839 1758.4 994.8 570.4 1010.8 570.4 1002.6 738.4 999.3 1743.4 983.3 1737.4 801.3 2153.4 767.3"></polygon>
                        <polygon id="XMLID_125_" fill="#38563C" fill-rule="nonzero" points="1545.5 513 1813.8 459.1 1814 463.3 1545.6 516.6"></polygon>
                        <polygon id="XMLID_124_" fill="#38563C" fill-rule="nonzero" points="1813.8 459.1 2047.5 555.9 2047.7 559.8 1814 463.3"></polygon>
                    </g>
                </g>
            </g>
            <g id="Layer_3" fill-rule="nonzero" fill="#000000" opacity="0.1">
                <rect id="XMLID_85_" x="0" y="0" width="2487.4" height="1725.5"></rect>
            </g>
        </g>
    </g>
</svg>